<svg width="644" height="740" viewBox="0 0 644 740" fill="none" xmlns="http://www.w3.org/2000/svg">
<path d="M641.142 484.566C670.857 708.621 464.638 835.452 220.37 649.959C85.5177 547.562 -118.781 604.823 88.3528 221.83C175.061 61.4782 409.102 -83.4356 509.111 56.4238C620.501 212.193 618.01 310.203 641.128 484.553L641.142 484.566Z" fill="#D5C757"/>
<path d="M569.178 552.499C569.112 552.669 567.88 552.368 566.529 555.118C553.532 569.233 530.6 578.871 511.88 581.961C499.255 584.056 422.655 587.513 404.571 587.853C341.418 589.058 237.831 585.339 182.997 554.463C182.507 553.52 182.136 552.813 181.672 551.844C179.778 547.837 175.698 539.771 178.36 538.75C185.037 554.122 231.962 565.41 247.582 568.212C305.184 578.53 468.811 580.9 523.804 566.248C538.416 562.359 569.231 550.731 570.503 533.512C571.099 537.152 570.357 549.094 569.178 552.499Z" fill="#F3F1F1"/>
<path d="M570.331 533.512C569.059 550.731 538.244 562.359 523.631 566.248C468.639 580.9 305.012 578.53 247.409 568.212C231.79 565.41 184.865 554.122 178.188 538.75C168.888 517.367 219.641 505.779 233.83 504.705C234.439 506.014 235.168 507.232 235.817 508.633C212.143 511.2 151.453 527.607 201.372 550.535C230.2 563.786 261.77 564.192 273.574 567.557C273.945 567.662 274.766 570.346 279.204 571.485C303.091 572.402 326.831 574.497 350.744 574.759L350.413 571.485C351.936 571.525 353.553 571.446 355.05 571.485C356.851 571.525 358.627 571.446 360.349 571.485C362.614 571.538 365.198 572.101 367.635 572.14C378.525 572.31 389.216 572.192 400.093 572.14C400.305 572.14 400.517 572.14 400.755 572.14C424.628 571.996 447.76 572.337 471.633 570.176V571.813C473.077 573.109 506.753 570.111 509.39 566.575L508.727 564.938C509.138 564.86 509.641 565.017 510.052 564.938C525.261 561.953 543.411 556.781 555.758 547.261C585.222 524.556 537.33 514.264 515.351 507.324C513.576 506.761 506.793 505.608 506.409 505.36C505.11 504.482 505.667 503.343 504.753 501.431C521.75 504.129 567.178 514.028 570.331 533.512Z" fill="#20150F"/>
<path d="M289.644 497.503C289.962 499.31 287.683 498.943 286.332 500.122C278.754 500.763 243.209 504.391 239.964 508.96C239.871 509.078 239.752 510.99 239.301 511.907C235.592 519.527 233.048 531.417 234.002 539.732C241.103 559.007 233.406 545.31 232.677 535.804C223.284 534.769 222.807 533.931 232.677 533.839C232.359 527.017 235.844 520.915 237.314 514.526C237.566 513.426 237.751 512.352 237.976 511.252C238.4 509.196 239.884 505.648 239.301 503.395C247.767 502.191 255.954 499.716 264.473 498.812C269.904 498.236 280.013 498.551 289.644 497.503Z" fill="#1E2229"/>
<path d="M566.529 555.118C565.72 556.781 565.296 558.234 565.204 558.391C560.09 567.505 551.187 577.483 542.351 583.27C485.238 620.615 268.778 615.94 211.149 583.925C199.173 577.273 189.33 566.457 182.997 554.463C237.831 585.339 341.417 589.058 404.571 587.853C422.655 587.513 499.255 584.056 511.88 581.961C530.6 578.871 553.532 569.233 566.529 555.118Z" fill="#D5CECD"/>
<path d="M555.93 547.261C556.619 536.655 544.02 528.707 534.733 526.965C524.718 525.093 517.14 527.934 514.199 527.62L515.524 507.324C537.502 514.264 585.394 524.556 555.93 547.261Z" fill="#F3F1F1"/>
<path d="M235.989 508.633C236.334 509.379 237.314 510.689 237.976 511.252C237.751 512.352 237.566 513.426 237.314 514.526C217.508 516.385 197.835 528.563 201.544 550.535C151.626 527.607 212.315 511.2 235.989 508.633Z" fill="#F3F1F1"/>
<path d="M275.733 567.557C277.456 568.015 279.284 568.015 281.033 568.212C295.142 569.836 309.569 570.896 323.758 571.485C329.136 571.708 334.793 570.647 339.986 570.831C340.119 570.831 339.205 571.368 342.636 571.485C345.286 571.577 347.935 571.407 350.585 571.485L350.916 574.759C327.003 574.497 303.263 572.402 279.377 571.485C274.938 570.346 274.117 567.662 273.746 567.557C274.316 567.623 274.356 567.4 274.408 566.902C274.965 566.902 275.097 567.387 275.733 567.557Z" fill="#182435"/>
<path d="M286.332 500.122C280.503 505.216 277.31 514.565 275.733 521.727C271.613 518.742 271.163 514.709 270.765 514.526C270.236 514.277 261.32 517.341 259.505 516.49C258.776 516.149 258.736 510.1 245.594 511.252C242.627 511.514 241.116 515.665 239.301 511.907C239.752 510.99 239.871 509.078 239.964 508.96C243.209 504.391 278.754 500.763 286.332 500.122Z" fill="#F3F1F1"/>
<path d="M459.882 496.194C460.107 496.194 463.631 498.158 463.856 498.158C463.194 500.816 460.611 500.724 458.557 500.777C448.436 501.052 408.479 495.801 390.661 496.848C388.382 494.976 390.396 493.732 390.33 493.575C413.553 493.326 436.711 495.094 459.882 496.194Z" fill="#20150F"/>
<path d="M315.478 318.112C313.994 319.002 310.483 322.747 308.854 324.004C282.967 344.117 264.724 374.574 251.225 403.879C250.046 402.282 249.449 400.357 248.575 398.642C249.966 394.229 263.108 369.258 263.148 367.543C263.201 364.832 259.823 364.649 259.836 363.614C259.836 362.554 268.209 361.218 275.734 349.866C275.257 348.176 264.658 350.402 259.836 349.538C236.241 345.296 234.188 303.761 261.823 300.107C259.876 295.197 257.345 289.973 256.524 284.722C258.339 285.023 261.624 282.339 262.817 282.103C284.239 277.939 262.287 286.607 261.492 287.341C253.927 294.333 274.091 307.401 269.772 316.475H267.785C265.334 296.336 242.229 308.658 247.913 329.569C255.398 357.094 305.158 332.529 295.937 308.946C310.867 316.737 300.004 330.774 311.503 319.749C312.934 314.249 296.215 292.238 291.962 287.341C301.991 289.527 312.987 308.854 315.478 318.112Z" fill="#2D0D11"/>
<path d="M248.575 398.642C239.911 381.593 251.132 375.949 251.887 372.126C252.497 369.009 248.178 357.133 259.836 349.538C264.659 350.402 275.257 348.176 275.734 349.866C268.209 361.218 259.849 362.554 259.836 363.615C259.836 364.649 263.201 364.832 263.148 367.543C263.108 369.258 249.966 394.229 248.575 398.642Z" fill="#281956"/>
<path d="M373.769 107.95C375.332 110.15 372.484 108.356 372.444 110.241C393.787 137.674 422.946 131.925 443.652 175.385C446.898 175.241 441.056 151.017 440.009 148.214C439.903 147.926 436.128 143.186 438.684 143.959C446.368 161.021 444.262 165.957 445.971 177.022C447.799 188.833 452.171 200.487 449.283 212.704C449.19 212.468 447.229 209.888 446.633 208.448C445.454 205.58 446.951 197.252 440.34 195.026C433.319 192.669 425.635 195.026 421.793 201.573C419.011 194.908 433.359 187.772 442.659 194.044C436.419 175.123 435.081 165.001 412.188 175.385C418.812 166.363 433.557 173.643 432.06 169.493C422.522 147.756 397.735 140.279 378.737 128.9C361.263 157.263 341.02 182.561 336.012 216.304C331.561 246.343 332.885 275.752 367.476 285.377C417.872 299.4 451.389 267.215 451.933 218.596C461.471 245.439 446.832 251.567 447.296 254.932C447.335 255.26 450.634 258.285 451.27 260.17C456.569 275.962 452.092 294.909 440.009 306.655C461.855 307.061 468.956 324.096 459.881 342.336C448.144 328.797 435.81 316.528 417.819 311.565C411.884 309.928 406.174 310.347 405.564 310.256C405.326 310.216 402.477 308.671 400.927 308.946C400.888 308.855 399.841 309.208 399.603 308.619C399.444 308.2 398.675 302.059 398.278 299.78C398.039 298.432 398.013 290.47 397.284 289.96C395.747 288.886 376.869 293.691 360.19 286.031L359.196 310.91C349.83 319.932 354.44 307.925 353.234 302.726C350.77 292.094 322.751 293.914 314.484 292.578C315.424 295.839 337.575 311.526 335.018 312.874C332.038 309.444 323.943 313.712 322.433 312.874C321.797 312.521 320.591 304.664 317.465 299.453C308.27 284.106 282.755 283.242 279.376 281.448C274.607 278.921 273.534 268.996 262.154 272.937C258.921 272.007 269.096 259.201 260.498 255.26C261.425 252.248 263.77 250.022 263.81 249.695C263.929 248.595 259.942 236.312 259.173 228.089C255.702 191.203 264.645 151.305 293.618 126.282C296.255 128.599 291.75 133.078 290.969 137.739C290.823 138.616 291.936 153.505 289.644 145.596C289.087 143.658 290.942 132.082 280.37 148.869C267.731 168.93 285.444 144.849 296.93 166.546C291.353 171.378 295.778 172.19 294.943 173.748C294.625 174.337 292.717 171.535 282.026 175.385C279.059 172.19 295.261 170.645 285.338 169.493C266.195 181.906 279.814 168.314 288.319 164.582C266.778 151.737 272.925 169.479 269.772 186.188C268.116 194.948 264.26 203.328 263.81 212.376C270.58 207.937 277.495 208.631 278.052 208.121C279.641 206.654 274.157 202.817 281.364 198.3C285.696 195.576 287.299 201.01 293.287 184.551C295.46 196.663 285.033 205.07 306.204 189.461L304.548 187.825C300.679 193.835 303.779 183.53 299.58 173.093L300.573 172.766C306.005 188.649 317.968 185.481 306.204 197.318C309.847 200.618 316.1 200.526 316.471 200.919C318.432 203.027 312.642 206.837 324.089 204.52C325.466 206.903 315.557 210.451 316.14 218.269C316.219 219.277 322.088 236.731 323.095 236.928C327.361 237.766 332.528 223.205 322.764 219.578C327.454 212.625 328.699 204.14 332.038 196.663C341.96 174.481 369.371 134.204 370.457 130.537C372.643 123.152 368.033 112.533 366.814 112.533C357.527 120.664 341.815 104.336 334.687 117.443C339.735 118.202 346.094 124.697 347.273 129.228C350.837 142.99 343.206 123.074 337.006 120.389C325.904 115.584 321.24 128.337 318.789 111.223C352.32 100.42 364.35 111.092 366.814 111.223C367.37 111.249 371.874 108.277 373.769 107.95Z" fill="#2D0D11"/>
<path d="M297.924 214.013C313.067 211.158 316.617 236.967 308.522 236.273C302.932 233.314 302.455 225.274 306.866 220.887C292.664 225.431 309.344 250.074 314.484 231.69C325.162 261.781 302.018 263.156 292.956 247.731C286.319 236.443 287.855 215.912 297.924 214.013Z" fill="#C86C5D"/>
<path d="M438.353 278.175C439.758 280.872 443.202 294.202 442.659 295.524C441.705 297.842 423.436 314.537 419.144 308.946C424.906 295.813 423.356 288.676 435.041 280.793C438.578 282.627 435.412 282.731 435.372 283.085C434.339 293.312 426.668 304.455 427.755 305.018C435.068 298.261 438.327 287.904 438.353 278.175Z" fill="#281956"/>
<path d="M441.666 309.601C452.516 309.614 462.359 321.844 458.888 332.516C456.901 334.113 453.032 320.757 449.614 318.767C444.726 315.912 437.439 319.565 433.385 313.856C432.988 311.224 439.957 309.601 441.666 309.601Z" fill="#281956"/>
<path d="M447.627 261.807C449.919 261.872 451.826 293.298 445.64 290.614C444.527 287.576 439.784 276.381 440.009 274.574C440.102 273.814 446.594 264.347 447.627 261.807Z" fill="#281956"/>
<path d="M318.79 111.223C321.241 128.337 325.904 115.584 337.006 120.389C343.206 123.074 350.837 142.99 347.273 129.228C346.094 124.697 339.735 118.202 334.688 117.443C341.815 104.336 357.527 120.664 366.814 112.533C368.033 112.533 372.643 123.152 370.457 130.537C369.371 134.204 341.961 174.481 332.038 196.663C328.7 204.14 327.454 212.625 322.764 219.578C332.528 223.205 327.362 237.766 323.096 236.928C322.089 236.731 316.22 219.277 316.14 218.269C315.557 210.451 325.467 206.903 324.089 204.52C312.643 206.837 318.432 203.027 316.472 200.919C316.101 200.526 309.848 200.618 306.204 197.318C317.969 185.481 306.006 188.649 300.574 172.766L299.58 173.093C303.78 183.53 300.68 193.835 304.548 187.824L306.204 189.461C285.034 205.07 295.46 196.663 293.287 184.551C287.299 201.01 285.696 195.576 281.364 198.3C274.157 202.817 279.642 206.654 278.052 208.121C277.496 208.631 270.58 207.937 263.811 212.376C264.261 203.328 268.116 194.948 269.772 186.188C272.925 169.479 266.778 151.737 288.319 164.582C279.814 168.314 266.195 181.906 285.339 169.493C295.261 170.645 279.059 172.19 282.027 175.385C292.718 171.535 294.626 174.337 294.943 173.748C295.778 172.19 291.353 171.378 296.931 166.546C285.445 144.849 267.732 168.93 280.371 148.869C290.943 132.082 289.088 143.658 289.644 145.596C291.936 153.505 290.823 138.616 290.969 137.739C291.751 133.078 296.255 128.599 293.619 126.282C302.773 118.373 306.787 115.086 318.79 111.223Z" fill="#281956"/>
<path d="M352.241 122.353C356.216 120.18 359.395 137.176 366.814 124.972L367.808 126.609C359.13 137.988 352.745 151.475 345.286 164.582C340.994 155.665 337.337 152.745 327.07 156.398L326.739 154.762C336.224 147.075 323.943 152.64 321.108 157.053C323.268 130.118 328.912 148.057 334.688 136.43C333.336 127.565 321.228 134.308 322.102 130.537C323.003 126.648 350.373 126.976 339.325 152.797C341.908 157.197 351.486 145.857 351.91 143.631C353.089 137.464 345.737 122.458 350.585 126.609C354.851 142.191 361.727 137.215 352.241 122.353Z" fill="#2D0D11"/>
<path d="M335.681 164.255C346.836 185.245 326.659 176.773 321.771 195.026L321.439 181.605C325.281 185.389 327.997 181.304 332.038 178.331C328.898 172.439 325.242 170.959 330.382 164.91C332.422 164.91 335.31 181.749 335.681 164.255Z" fill="#2D0D11"/>
<path d="M316.471 148.542L318.127 148.869C309.794 153.649 312.153 165.761 317.796 170.802C336.715 154.631 318.194 172.976 315.147 180.623C313.093 170.226 300.269 153.57 316.471 148.542Z" fill="#2D0D11"/>
<path d="M302.561 128.246C310.457 134.23 301.024 145.229 300.905 148.869C300.772 153.112 308.377 166.586 309.847 171.457C308.046 168.34 294.374 149.602 294.281 148.214C293.989 143.749 303.568 141.955 302.561 128.246Z" fill="#2D0D11"/>
<path d="M323.095 136.757C331.097 136.128 317.16 147.062 309.516 145.596C308.642 144.077 322.274 136.822 323.095 136.757Z" fill="#2D0D11"/>
<path d="M359.196 310.91V312.874C353.857 314.603 348.094 317.942 341.974 318.112C333.813 309.941 324.248 312.887 315.478 318.112C312.987 308.854 301.991 289.527 291.962 287.341C296.215 292.238 312.934 314.249 311.503 319.749C300.004 330.774 310.867 316.737 295.937 308.946C305.157 332.529 255.398 357.094 247.913 329.569C242.229 308.658 265.334 296.336 267.785 316.475H269.772C274.091 307.401 253.927 294.333 261.492 287.341C262.287 286.607 284.239 277.939 262.817 282.103C261.624 282.339 258.339 285.023 256.524 284.722C254.484 271.562 256.948 266.861 260.498 255.26C269.096 259.201 258.922 272.007 262.154 272.937C273.534 268.996 274.607 278.921 279.377 281.448C282.755 283.242 308.271 284.106 317.465 299.453C320.591 304.664 321.797 312.521 322.433 312.874C323.943 313.712 332.038 309.444 335.019 312.874C337.575 311.526 315.425 295.839 314.484 292.578C322.751 293.914 350.771 292.094 353.235 302.726C354.44 307.925 349.83 319.932 359.196 310.91Z" fill="#281956"/>
<path d="M275.402 301.09L287.656 321.058C278.621 316.004 283.669 320.875 282.026 322.04C280.608 323.049 275.309 316.659 267.453 331.206C268.049 314.681 284.755 323.127 274.408 302.072L275.402 301.09Z" fill="#2D0D11"/>
<path d="M274.74 291.924C286.411 289.344 295.977 302.111 294.612 303.054C285.988 299.898 297.209 310.635 291.3 319.421C289.233 318.95 291.631 316.659 291.631 316.475C291.936 303.813 284.451 289.737 269.772 296.834C268.752 295.276 273.746 292.146 274.74 291.924Z" fill="#2D0D11"/>
<path d="M438.685 143.959C436.128 143.186 439.903 147.926 440.009 148.214C441.056 151.017 446.898 175.241 443.653 175.385C422.946 131.925 393.787 137.674 372.444 110.241C372.484 108.356 375.332 110.149 373.769 107.95C402.16 102.974 427.132 118.294 438.685 143.959Z" fill="#281956"/>
<path d="M387.349 113.187C389.879 111.878 420.469 132.331 423.45 137.084C422.085 139.638 390.674 115.649 387.349 114.497V113.187Z" fill="#2D0D11"/>
<path d="M335.35 322.04C342.278 329.203 349.326 359.726 349.923 370.162C351.022 389.358 347.631 402.74 334.687 416.974C326.99 421.871 316.617 423.206 308.854 427.449C316.975 410.845 326.209 392.474 324.42 373.763C314.073 406.76 288.518 455.811 259.173 475.243C258.537 475.662 257.822 476.159 257.186 476.552C255.345 477.691 241.938 484.789 240.957 484.409C231.048 458.744 241.858 432.857 249.9 408.462C252.165 403.369 251.118 404.102 251.224 403.879C264.724 374.574 282.967 344.117 308.854 324.004C333.482 331.547 328.739 358.364 338.33 356.74C347.882 355.129 334.144 324.201 328.063 320.731C329.838 321.098 332.448 319.932 335.35 322.04Z" fill="#C86C5D"/>
<path d="M257.186 476.552C269.043 483.885 283.841 488.56 296.93 490.956C303.197 493.575 309.476 496.259 315.478 499.467C311.092 504.312 304.68 505.582 300.905 510.597C297.977 508.79 291.777 511.383 286.994 511.907C277.363 512.954 267.255 512.64 261.823 513.216C251.37 509.707 236.214 510.82 229.365 500.449C217.429 482.379 241.341 427.724 249.9 408.462C241.858 432.857 231.048 458.744 240.957 484.409C241.938 484.788 255.345 477.691 257.186 476.552Z" fill="#A03E3C"/>
<path d="M398.278 299.78C398.675 302.058 399.444 308.2 399.603 308.619C399.841 309.208 400.888 308.854 400.928 308.946C406.2 320.325 418.892 330.918 421.462 364.269C415.606 379.458 374.021 377.73 364.827 370.489C357.898 365.029 353.34 329.491 341.974 318.112C348.094 317.942 353.857 314.603 359.196 312.874C372.272 308.632 385.666 305.411 398.278 299.78Z" fill="#C86C5D"/>
<path d="M398.278 299.78C385.666 305.411 372.272 308.632 359.196 312.874V310.91L360.19 286.031C376.869 293.691 395.748 288.886 397.284 289.959C398.013 290.47 398.04 298.431 398.278 299.78Z" fill="#A03E3C"/>
<path d="M308.853 427.449C305.263 429.413 306.376 431.207 304.216 434.978C303.58 436.078 301.633 437.649 300.904 438.906C300.414 439.771 301.593 439.836 301.567 439.888C301.514 439.98 301.712 440.491 300.904 441.853C299.712 443.869 298.162 445.742 296.93 447.745C289.816 459.346 281.946 470.463 274.408 481.79C269.308 479.669 264.101 477.731 259.173 475.243C288.517 455.811 314.073 406.76 324.42 373.763C326.208 392.474 316.974 410.845 308.853 427.449Z" fill="#A03E3C"/>
<path d="M334.687 416.974C328.924 423.311 317.557 433.367 309.847 436.615C306.72 437.924 303.196 436.51 301.567 439.888C301.593 439.836 300.414 439.771 300.905 438.906C301.633 437.649 303.581 436.078 304.217 434.978C306.376 431.207 305.263 429.413 308.853 427.449C316.617 423.206 326.99 421.871 334.687 416.974Z" fill="#A03E3C"/>
<path d="M274.409 481.79C279.88 484.068 285.524 486.072 290.969 488.337C292.943 489.162 294.917 490.118 296.93 490.956C283.841 488.56 269.043 483.885 257.186 476.552C257.822 476.159 258.537 475.662 259.173 475.243C264.102 477.731 269.308 479.669 274.409 481.79Z" fill="#253C55"/>
<path d="M458.318 340.333C458.477 340.516 458.623 340.713 458.742 340.909C464.174 349.774 471.394 357.408 477.104 366.129C486.55 380.519 499.997 409.3 503.428 426.008C504.753 432.464 527.274 504.836 523.3 504.836C516.901 504.836 504.753 502.217 496.804 498.38C465.565 483.283 468.506 402.517 447.905 375.766C447.826 375.661 447.746 375.57 447.667 375.478C430.842 356.452 464.373 389.161 468.996 402.753C471.646 410.557 480.919 410.557 460.239 404.115C458.424 403.552 456.649 403.015 455.96 401.26C452.476 392.527 446.276 388.651 442.672 383.256C417.951 346.265 425.278 334.585 411.698 317.091C409.155 313.817 412.294 309.129 416.322 310.203C416.375 310.216 416.441 310.229 416.494 310.255C434.366 315.113 446.647 327.095 458.318 340.346V340.333Z" fill="#C86C5D"/>
<path d="M432.061 169.492C433.558 173.643 418.813 166.363 412.188 175.385C404.081 175.463 418.601 159.305 432.061 169.492Z" fill="#100C0A"/>
<path d="M432.06 169.493C418.6 159.305 404.081 175.464 412.188 175.385C435.081 165.001 436.419 175.123 442.659 194.044C433.359 187.772 419.011 194.908 421.793 201.573C425.635 195.026 433.319 192.669 440.34 195.026C446.951 197.252 445.454 205.58 446.633 208.448C447.229 209.888 449.19 212.468 449.283 212.703C450.051 214.707 451.191 216.501 451.933 218.596C451.389 267.215 417.872 299.4 367.476 285.376C332.885 275.752 331.561 246.343 336.012 216.304C341.02 182.561 361.263 157.263 378.737 128.9C397.735 140.279 422.522 147.756 432.06 169.493Z" fill="#C86C5D"/>
<path d="M356.215 227.107C373.795 223.912 376.101 252.589 355.553 249.367C343.285 247.442 345.445 229.071 356.215 227.107Z" fill="#BF554D"/>
<path d="M437.691 211.394C450.422 208.513 449.945 232.633 446.965 233.654C433.73 232.319 425.675 220.626 437.691 211.394Z" fill="#BF554D"/>
<path d="M366.813 174.076C372.51 173.329 379.571 173.853 382.38 179.641C382.009 180.95 368.814 178.96 355.553 184.551C351.181 179.745 363.157 174.547 366.813 174.076Z" fill="#100C0A"/>
<path d="M412.519 201.573C432.656 221.228 409.923 234.702 399.603 217.614C400.397 214.118 409.048 227.421 417.487 218.923C420.561 213.253 409.843 201.966 412.519 201.573Z" fill="#182435"/>
<path d="M372.775 201.573C379.731 201.023 388.064 205.148 384.699 208.12C365.847 196.951 356.308 220.311 357.871 211.067C358.626 206.562 368.629 201.901 372.775 201.573Z" fill="#20150F"/>
<path d="M429.742 235.618L430.736 235.946C425.953 245.662 426.92 270.829 411.857 272.937C394.595 275.346 384.156 252.746 377.081 240.529C377.916 237.91 402.411 256.216 429.742 235.618Z" fill="#253C55"/>
<path d="M427.093 239.547C418.574 303.591 378.592 246.212 382.049 244.13C395.284 250.624 416.07 249.59 427.093 239.547Z" fill="#F3F1F1"/>
<path d="M405.564 310.255C429.411 333.328 415.659 342.585 443.983 385.547C439.426 385.154 427.635 369.062 426.43 369.18C415.235 385.272 375.054 383.19 358.202 374.417C356.44 398.642 344.716 418.558 325.413 433.341C318.564 438.592 310.072 444.642 300.904 441.852C301.712 440.491 301.514 439.98 301.567 439.888C303.196 436.51 306.72 437.924 309.847 436.615C317.557 433.367 328.924 423.311 334.687 416.973C347.63 402.74 351.022 389.358 349.922 370.162C349.326 359.725 342.278 329.203 335.349 322.04C335.19 321.883 333.945 319.487 332.368 318.767C327.255 316.41 316.007 318.256 328.063 320.731C334.144 324.201 347.882 355.129 338.33 356.74C328.738 358.364 333.481 331.547 308.853 324.004C310.483 322.747 313.993 319.002 315.477 318.112C324.247 312.887 333.813 309.941 341.973 318.112C353.34 329.491 357.897 365.029 364.826 370.489C374.02 377.73 415.606 379.458 421.462 364.269C418.892 330.918 406.2 320.325 400.927 308.946C402.477 308.671 405.326 310.216 405.564 310.255Z" fill="#F3F1F1"/>
<path d="M335.35 322.04C332.448 319.932 329.838 321.098 328.063 320.731C316.008 318.256 327.255 316.41 332.369 318.767C333.945 319.487 335.191 321.883 335.35 322.04Z" fill="#2F3849"/>
<path d="M443.984 385.547C448.091 391.767 455.576 396.01 458.557 407.808C461.816 420.732 457.762 425.354 452.595 435.96C452.555 436.039 451.31 437.191 451.27 437.27C451.35 435.07 438.724 439.849 431.729 441.198C404.743 446.409 343.696 456.256 325.414 433.341C344.716 418.558 356.441 398.642 358.203 374.417C375.054 383.19 415.235 385.272 426.43 369.18C427.636 369.062 439.426 385.155 443.984 385.547Z" fill="#80C3D9"/>
<path d="M451.27 437.27C448.528 442.835 445.944 445.165 444.646 451.673L420.137 473.933C406.439 460.905 380.155 457.788 362.177 460.184C354.255 461.245 341.046 466.116 332.7 468.696C332.7 468.25 332.859 467.504 332.369 467.386C325.89 465.841 318.962 465.239 312.497 463.458C309.887 462.738 303.912 459.556 302.229 460.839C300.838 456.505 298.772 451.948 296.93 447.745C298.162 445.741 299.712 443.869 300.905 441.852C310.072 444.642 318.564 438.592 325.414 433.341C343.696 456.256 404.743 446.409 431.729 441.198C438.724 439.849 451.35 435.07 451.27 437.27Z" fill="#5DA6B7"/>
<path d="M438.684 485.064C433.61 484.16 433.544 484.644 428.086 485.064C427.953 484.553 424.602 478.529 424.111 477.862C432.02 470.83 439.426 463.55 444.646 454.292C442.738 464.492 442.473 475.073 438.684 485.064Z" fill="#80C3D9"/>
<path d="M444.646 451.673C444.487 452.498 444.805 453.467 444.646 454.292C439.426 463.55 432.021 470.83 424.112 477.862C423.953 477.639 420.8 474.562 420.137 473.933L444.646 451.673Z" fill="#588E99"/>
<path d="M332.7 468.696C326.142 470.725 312.828 473.973 307.529 476.552C304.177 472.166 303.833 465.841 302.229 460.839C303.912 459.556 309.887 462.738 312.497 463.458C318.962 465.239 325.891 465.841 332.369 467.386C332.859 467.504 332.7 468.251 332.7 468.696Z" fill="#588E99"/>
<path d="M422.787 459.53C423.449 460.158 426.602 463.235 426.761 463.458C427.251 464.126 430.603 470.149 430.736 470.66C430.789 470.869 430.696 471.105 430.736 471.315L418.15 479.826C405.737 473.305 388.607 480.913 387.679 485.391C386.911 489.123 390.157 493.182 390.329 493.575C390.395 493.732 388.382 494.976 390.66 496.848C408.479 495.801 448.435 501.052 458.557 500.777C447.653 506.302 455.377 515.219 450.939 518.454C444.474 523.168 416.203 520.811 404.902 523.691C402.544 517.341 401.351 510.348 392.979 511.252C392.316 510.244 391.256 511.239 389.667 508.306C387.282 503.906 384.831 485.731 378.737 485.718C374.604 485.718 366.244 500.659 361.846 502.741C359.607 499.886 356.745 497.136 353.897 494.884C353.831 494.832 353.301 493.614 353.234 493.575L356.878 487.682C353.46 488.128 350.558 490.144 347.273 490.956C341.033 492.488 334.594 492.75 328.726 496.194C325.559 483.27 337.125 463.419 318.127 485.063C312.126 481.855 305.846 479.171 299.58 476.552C297.566 475.714 295.592 474.758 293.618 473.933C297.208 471.301 307.423 463.497 310.178 462.149C315.477 459.569 328.792 456.322 335.35 454.292C343.696 451.712 356.904 446.841 364.827 445.781C382.804 443.385 409.088 446.501 422.787 459.53Z" fill="#F6EAE5"/>
<path d="M353.234 493.575C351.446 492.331 349.14 491.977 347.272 490.956C350.558 490.144 353.459 488.128 356.877 487.682L353.234 493.575Z" fill="#3B7F8F"/>
<path d="M303.555 496.194C302.124 498.092 296.652 508.843 299.249 509.943C309.013 509.825 315.385 508.869 324.752 511.252C321.784 513.897 333.495 515.56 337.668 519.763C345.365 527.502 343.18 559.949 339.987 570.831C334.794 570.647 329.137 571.708 323.758 571.485C309.569 570.896 295.142 569.836 281.033 568.212C279.019 545.572 278.158 519.357 294.612 501.431C281.245 506.329 277.416 529.178 276.396 541.696C275.681 550.417 277.694 560.08 275.734 567.557C275.098 567.387 274.965 566.916 274.409 566.902C274.74 564.087 274.343 544.158 273.746 543.005C258.604 539.287 272.528 543.084 273.746 540.387C274.131 539.536 273.044 533.918 275.734 521.727C277.31 514.565 280.503 505.216 286.332 500.122C287.683 498.943 289.962 499.31 289.644 497.503C294.427 496.979 300.627 494.387 303.555 496.194Z" fill="#C30031"/>
<path d="M347.273 490.956C349.141 491.977 351.446 492.331 353.235 493.575C353.301 493.614 353.831 494.832 353.897 494.884C352.135 494.557 346.822 499.637 345.948 500.777C345.842 500.921 344.544 500.227 344.623 501.759C344.809 505.399 366.324 520.562 355.222 571.485C353.725 571.446 352.108 571.525 350.585 571.485C347.935 571.407 345.286 571.577 342.636 571.485C346.372 552.892 352.625 522.788 331.375 513.216C332.634 510.637 332.912 509.628 332.7 506.669C337.734 505.373 332.594 502.086 331.375 500.122C330.541 498.786 329.441 499.101 328.726 496.194C334.594 492.75 341.033 492.488 347.273 490.956Z" fill="#C30031"/>
<path d="M353.897 494.884C356.745 497.136 359.607 499.886 361.846 502.741C362.588 503.683 363.091 504.954 363.833 506.014C364.827 509.798 366.231 513.321 367.145 517.144C367.688 519.41 368.139 521.374 368.47 523.691C369.861 533.355 370.285 545.389 369.795 555.118C369.556 560.015 368.655 564.545 368.47 569.521C368.417 570.804 367.688 571.04 367.808 572.14C365.37 572.101 362.787 571.538 360.521 571.485C365.555 550.495 367.185 513.164 345.948 500.777C346.823 499.637 352.135 494.557 353.897 494.884Z" fill="#D32949"/>
<path d="M345.948 500.777C367.185 513.164 365.556 550.495 360.521 571.485C358.799 571.446 357.024 571.525 355.222 571.485C366.324 520.562 344.809 505.399 344.624 501.759C344.544 500.227 345.842 500.921 345.948 500.777Z" fill="#FF6230"/>
<path d="M281.033 568.212C279.284 568.015 277.456 568.015 275.733 567.557C277.694 560.08 275.68 550.417 276.396 541.696C277.416 529.178 281.245 506.329 294.612 501.431C278.158 519.357 279.019 545.572 281.033 568.212Z" fill="#EB634C"/>
<path d="M331.375 513.216C352.625 522.788 346.372 552.892 342.636 571.485C339.205 571.368 340.119 570.831 339.987 570.831C343.179 559.949 345.365 527.502 337.668 519.763C333.495 515.56 321.784 513.897 324.751 511.252C326.871 511.789 329.415 512.326 331.375 513.216Z" fill="#EB634C"/>
<path d="M328.726 496.194C329.441 499.101 330.541 498.786 331.376 500.122C330.382 501.85 332.581 505.098 332.7 506.669C332.912 509.628 332.634 510.637 331.376 513.216C329.415 512.326 326.871 511.789 324.752 511.252C315.385 508.869 309.013 509.825 299.249 509.943C296.652 508.843 302.124 498.092 303.555 496.194C307.33 491.179 313.742 489.908 318.128 485.063C337.125 463.419 325.56 483.27 328.726 496.194Z" fill="#4F6973"/>
<path d="M332.7 506.669C332.581 505.098 330.382 501.85 331.376 500.122C332.595 502.086 337.735 505.373 332.7 506.669Z" fill="#F8F3F2"/>
<path d="M555.93 547.261C543.583 556.781 525.433 561.953 510.224 564.938C509.522 563.301 509.032 561.481 508.899 559.701C510.94 556.492 508.422 549.814 509.562 546.934C510.476 544.629 541.158 524.071 552.287 547.916C557.083 549.264 553.373 539.522 549.968 535.804C545.901 531.352 539.357 530.396 534.733 526.965C544.02 528.707 556.619 536.655 555.93 547.261Z" fill="#CE9175"/>
<path d="M501.613 524.346C499.083 528.052 486.378 540.19 481.079 550.207L489.359 556.427L513.536 521.073C513.629 523.325 511.602 527.345 514.199 527.62C517.14 527.934 524.718 525.093 534.733 526.965C539.357 530.396 545.901 531.352 549.969 535.804C553.373 539.522 557.083 549.264 552.287 547.916C541.159 524.071 510.476 544.629 509.562 546.934C508.423 549.814 510.94 556.493 508.9 559.701C507.641 542.311 512.384 535.345 511.218 534.822C503.163 544.393 488.511 552.748 492.339 566.902C489.425 567.321 486.683 567.858 483.728 568.212C483.635 566.706 485.278 565.907 486.378 564.284C493.598 553.559 480.403 554.751 477.767 549.225C480.019 542.194 473.077 538.658 475.779 535.476C476.693 535.018 487.795 525.106 491.346 522.382C495.824 518.964 505.27 516.058 505.919 509.943C510.304 510.244 503.282 521.911 501.613 524.346Z" fill="#DBB67D"/>
<path d="M459.882 496.194C436.711 495.094 413.553 493.326 390.33 493.575C390.157 493.182 386.912 489.123 387.68 485.391C388.607 480.913 405.737 473.305 418.151 479.826C425.291 483.584 424.417 488.73 427.424 491.938C428.974 493.588 428.775 492.043 429.411 492.265C436.486 494.74 450.608 493.863 458.557 494.557C457.564 481.895 452.834 477.364 442.659 470.66C453.351 473.488 460.73 485.548 459.882 496.194Z" fill="#CCAF6B"/>
<path d="M441.334 470.66C441.745 470.725 442.301 470.568 442.659 470.66C452.834 477.364 457.563 481.895 458.557 494.557C450.608 493.863 436.486 494.74 429.411 492.265C431.465 488.363 431.557 475.007 430.736 471.315C430.696 471.105 430.789 470.869 430.736 470.66C436.194 470.241 436.26 469.756 441.334 470.66Z" fill="#DBB67D"/>
<path d="M429.411 492.265C428.775 492.043 428.974 493.588 427.424 491.938C424.417 488.73 425.291 483.584 418.15 479.826L430.736 471.315C431.557 475.007 431.465 488.363 429.411 492.265Z" fill="#E3C88C"/>
<path d="M275.734 521.727C273.044 533.918 274.131 539.536 273.746 540.387C272.528 543.084 258.604 539.287 273.746 543.005C274.343 544.158 274.74 564.087 274.409 566.902C274.356 567.4 274.316 567.623 273.746 567.557C261.942 564.192 230.372 563.786 201.545 550.535C197.835 528.563 217.508 516.385 237.314 514.526C235.844 520.916 232.36 527.017 232.677 533.84C222.808 533.931 223.285 534.769 232.677 535.804C233.406 545.31 241.103 559.007 234.002 539.732C233.048 531.417 235.592 519.528 239.302 511.907C241.116 515.665 242.627 511.514 245.594 511.252C258.736 510.1 258.776 516.149 259.505 516.49C261.32 517.341 270.236 514.277 270.766 514.526C271.163 514.709 271.614 518.742 275.734 521.727Z" fill="#E3C88C"/>
<path d="M246.257 530.239C262.168 541.408 265.996 546.384 246.919 532.203L246.257 530.239Z" fill="#3A4B50"/>
<path d="M262.154 519.108L266.791 521.073C279.867 536.223 269.918 525.184 262.154 519.108Z" fill="#729099"/>
<path d="M244.932 515.835C257.941 516.882 258.008 519.763 244.601 516.162L244.932 515.835Z" fill="#25728D"/>
<path d="M244.27 540.059C250.801 549.945 248.496 551.635 243.938 540.387L244.27 540.059Z" fill="#3A4B50"/>
<path d="M239.302 503.395C239.885 505.648 238.401 509.196 237.977 511.252C237.315 510.689 236.334 509.379 235.99 508.633C235.341 507.232 234.612 506.014 234.003 504.705C225.246 486.019 238.56 500.567 239.302 503.395Z" fill="#8ABDB7"/>
<path d="M508.9 559.701C509.032 561.481 509.522 563.301 510.224 564.938C509.814 565.017 509.31 564.86 508.9 564.938C500.129 566.614 495.466 566.457 492.34 566.902C488.511 552.748 503.163 544.393 511.218 534.822C512.384 535.345 507.641 542.311 508.9 559.701Z" fill="#1E4C55"/>
<path d="M471.805 570.176C475.713 569.822 479.82 568.683 483.728 568.212C486.682 567.858 489.425 567.321 492.339 566.902C495.466 566.457 500.129 566.614 508.899 564.938L509.562 566.575C506.925 570.111 473.249 573.109 471.805 571.813V570.176Z" fill="#161D13"/>
<path d="M476.442 513.216C475.236 519.894 475.448 529.505 471.805 534.494C474.706 537.624 473.752 536.511 475.779 535.476C473.077 538.658 480.019 542.194 477.766 549.225C476.958 547.536 477.872 543.359 473.13 537.113C461.206 521.426 448.17 531.43 444.977 531.548C444.739 531.548 443.891 530.225 443.653 530.239C419.766 530.998 426.099 526.048 422.456 525.001C407.3 520.641 403.498 534.154 401.259 534.822C399.046 535.476 389.733 534.18 388.011 534.822C386.567 535.358 383.679 544.249 382.712 544.642C377.426 546.829 370.868 540.609 369.795 555.118C370.285 545.389 369.861 533.355 368.47 523.691C370.272 520.785 376.631 527.515 380.393 527.947L367.145 517.144C366.231 513.321 364.827 509.798 363.833 506.014C365.529 508.424 366.456 512.077 367.145 512.561C370.894 515.233 375.611 509 383.705 519.436C385.547 521.806 383.785 523.43 386.355 523.037C388.474 522.709 394.37 517.851 396.953 516.49C401.789 522.945 401.484 525.368 401.921 525.656C402.067 525.747 404.73 523.731 404.902 523.691C416.203 520.811 444.474 523.168 450.939 518.454C455.377 515.219 447.654 506.302 458.557 500.777C460.61 500.724 463.194 500.816 463.856 498.158C466.982 498.105 469.579 496.39 472.467 495.539L463.856 520.091C472.573 522.526 473.686 513.059 476.442 513.216Z" fill="#E3C88C"/>
<path d="M513.536 521.073L489.359 556.427L481.079 550.207C486.378 540.19 499.083 528.052 501.613 524.346C510.701 520.654 513.338 516.463 513.536 521.073Z" fill="#D9A181"/>
<path d="M481.741 492.265C478.535 497.49 477.648 506.564 476.442 513.216C473.687 513.059 472.574 522.526 463.856 520.091L472.468 495.539C475.528 494.635 478.8 493.483 481.741 492.265Z" fill="#DBB67D"/>
<path d="M504.925 498.158C505.004 498.302 504.13 499.781 504.925 501.431C505.839 503.343 505.283 504.482 506.581 505.36C506.965 505.608 513.748 506.761 515.523 507.324L514.198 527.62C511.602 527.345 513.629 523.325 513.536 521.073C513.337 516.463 510.701 520.654 501.613 524.346C503.282 521.911 510.304 510.244 505.918 509.943C505.269 516.058 495.823 518.964 491.346 522.382C487.795 525.106 476.693 535.018 475.779 535.476C473.752 536.511 474.706 537.624 471.805 534.494C475.448 529.505 475.236 519.894 476.442 513.216C477.647 506.564 478.535 497.49 481.741 492.265C483.794 491.414 489.054 487.146 489.69 487.028C492.366 486.53 497.161 488.52 499.294 490.301C500.036 490.917 504.594 497.49 504.925 498.158Z" fill="#E3C88C"/>
<path d="M491.345 492.265C494.286 492.763 493.372 503.474 493.664 505.687L486.377 503.723C486.245 519.947 476.534 532.163 479.091 522.709C479.237 522.159 480.27 522.592 480.416 522.055C480.972 519.894 484.456 508.397 484.39 507.651C484.244 505.91 482.39 507.036 482.403 506.342C482.562 498.158 483.966 496.102 491.345 492.265Z" fill="#DBB67D"/>
<path d="M477.767 549.225C480.404 554.751 493.599 553.559 486.378 564.284C459.485 566.326 478.165 555.799 466.175 542.023C453.722 545.428 455.736 536.707 453.59 536.131C449.602 535.044 445.588 547.078 439.679 533.512C427.266 534.075 438.103 550.849 415.17 535.476C403.446 547.065 407.46 539.771 400.597 538.75C383.03 536.131 399.219 565.292 400.928 572.14C400.69 572.14 400.478 572.14 400.266 572.14C394.304 553.049 377.585 551.923 368.471 569.521C368.656 564.545 369.557 560.015 369.796 555.118C370.869 540.609 377.426 546.829 382.712 544.642C383.679 544.249 386.568 535.358 388.012 534.822C389.734 534.18 399.047 535.476 401.26 534.822C403.499 534.154 407.301 520.641 422.457 525.001C426.1 526.048 419.767 530.998 443.653 530.239C443.892 530.239 444.74 531.561 444.978 531.548C448.171 531.43 461.207 521.426 473.13 537.113C477.873 543.359 476.959 547.536 477.767 549.225Z" fill="#1E4C55"/>
<path d="M400.266 572.14C389.389 572.192 378.698 572.31 367.808 572.14C367.689 571.04 368.417 570.804 368.47 569.521C377.585 551.923 394.304 553.049 400.266 572.14Z" fill="#4D7D87"/>
<path d="M486.379 564.284C485.279 565.907 483.636 566.706 483.729 568.212C479.821 568.683 475.714 569.822 471.806 570.176C447.933 572.337 424.802 571.996 400.929 572.14C399.22 565.292 383.03 536.131 400.597 538.75C407.46 539.771 403.446 547.065 415.17 535.476C438.103 550.849 427.266 534.075 439.679 533.512C445.588 547.078 449.602 535.044 453.59 536.131C455.736 536.707 453.722 545.428 466.175 542.023C478.165 555.799 459.485 566.326 486.379 564.284Z" fill="#4D7D87"/>
<path d="M458.888 557.736C459.842 557.527 464.545 566.222 462.863 567.557C456.941 566.654 455.696 562.738 458.888 557.736Z" fill="#26545A"/>
<path d="M368.47 523.691C368.139 521.374 367.689 519.41 367.146 517.144L380.394 527.947C376.631 527.515 370.272 520.785 368.47 523.691Z" fill="#B49827"/>
<path d="M392.979 511.252C394.171 513.059 395.655 514.748 396.954 516.49C394.37 517.851 388.475 522.709 386.355 523.037C381.745 514.499 377.77 501.602 367.145 512.561C366.457 512.077 365.529 508.424 363.833 506.014C363.092 504.954 362.588 503.683 361.846 502.741C366.245 500.659 374.604 485.705 378.737 485.718C384.832 485.731 387.282 503.906 389.667 508.306C391.257 511.239 392.317 510.244 392.979 511.252Z" fill="#6DA9B6"/>
<path d="M404.903 523.691C404.731 523.731 402.068 525.747 401.922 525.656C401.485 525.368 401.789 522.945 396.954 516.49C395.656 514.748 394.172 513.059 392.979 511.252C401.352 510.348 402.545 517.341 404.903 523.691Z" fill="#3B7F8F"/>
<path d="M386.355 523.037C383.785 523.43 385.547 521.806 383.706 519.436C375.611 509 370.895 515.233 367.146 512.561C377.77 501.602 381.745 514.499 386.355 523.037Z" fill="#3B7F8F"/>
</svg>
