<svg width="24" height="24" viewBox="0 0 24 24" fill="none" xmlns="http://www.w3.org/2000/svg">
<path d="M18.7826 2.39062C18.7826 13.7413 10.8407 22.944 1.04346 22.944" stroke="#CE4A2D" stroke-linecap="round"/>
<path fill-rule="evenodd" clip-rule="evenodd" d="M18.7825 2.92262L15.4622 7.01062C15.3626 7.13122 15.2306 7.19843 15.0933 7.19843C14.9561 7.19843 14.8241 7.13122 14.7245 7.01062C14.6761 6.95207 14.6377 6.88156 14.6114 6.80339C14.5851 6.72523 14.5715 6.64104 14.5715 6.55595C14.5715 6.47087 14.5851 6.38668 14.6114 6.30852C14.6377 6.23035 14.6761 6.15984 14.7245 6.10129L18.4038 1.57329C18.5025 1.44696 18.636 1.37487 18.7757 1.37238C18.9155 1.36989 19.0504 1.43719 19.1519 1.55996L22.8406 6.10129C22.8888 6.15982 22.9271 6.23025 22.9533 6.30829C22.9795 6.38634 22.993 6.47037 22.993 6.55529C22.993 6.64021 22.9795 6.72424 22.9533 6.80228C22.9271 6.88033 22.8888 6.95075 22.8406 7.00929C22.741 7.12989 22.609 7.1971 22.4718 7.1971C22.3345 7.1971 22.2025 7.12989 22.1029 7.00929L18.7825 2.92262Z" fill="#CE4A2D"/>
</svg>
