<svg width="644" height="740" fill="none" xmlns="http://www.w3.org/2000/svg"><path d="M641.142 484.566c29.715 224.055-176.504 350.886-420.772 165.393C85.518 547.562-118.781 604.823 88.353 221.83 175.06 61.478 409.102-83.436 509.11 56.424c111.39 155.769 108.899 253.779 132.017 428.129l.014.013Z" fill="#D5C757"/><path d="M569.178 552.499c-.066.17-1.298-.131-2.649 2.619-12.997 14.115-35.929 23.753-54.649 26.843-12.625 2.095-89.225 5.552-107.309 5.892-63.153 1.205-166.74-2.514-221.574-33.39-.49-.943-.861-1.65-1.325-2.619-1.894-4.007-5.974-12.073-3.312-13.094 6.677 15.372 53.602 26.66 69.222 29.462 57.602 10.318 221.229 12.688 276.222-1.964 14.612-3.889 45.427-15.517 46.699-32.736.596 3.64-.146 15.582-1.325 18.987Z" fill="#F3F1F1"/><path d="M570.331 533.512c-1.272 17.219-32.087 28.847-46.7 32.736-54.992 14.652-218.619 12.282-276.222 1.964-15.619-2.802-62.544-14.09-69.221-29.462-9.3-21.383 41.453-32.971 55.642-34.045.609 1.309 1.338 2.527 1.987 3.928-23.674 2.567-84.364 18.974-34.445 41.902 28.828 13.251 60.398 13.657 72.202 17.022.371.105 1.192 2.789 5.63 3.928 23.887.917 47.627 3.012 71.54 3.274l-.331-3.274c1.523.04 3.14-.039 4.637 0 1.801.04 3.577-.039 5.299 0 2.265.053 4.849.616 7.286.655 10.89.17 21.581.052 32.458 0h.662c23.873-.144 47.005.197 70.878-1.964v1.637c1.444 1.296 35.12-1.702 37.757-5.238l-.663-1.637c.411-.078.914.079 1.325 0 15.209-2.985 33.359-8.157 45.706-17.677 29.464-22.705-18.428-32.997-40.407-39.937-1.775-.563-8.558-1.716-8.942-1.964-1.299-.878-.742-2.017-1.656-3.929 16.997 2.698 62.425 12.597 65.578 32.081Z" fill="#20150F"/><path d="M289.644 497.503c.318 1.807-1.961 1.44-3.312 2.619-7.578.641-43.123 4.269-46.368 8.838-.093.118-.212 2.03-.663 2.947-3.709 7.62-6.253 19.51-5.299 27.825 7.101 19.275-.596 5.578-1.325-3.928-9.393-1.035-9.87-1.873 0-1.965-.318-6.822 3.167-12.924 4.637-19.313.252-1.1.437-2.174.662-3.274.424-2.056 1.908-5.604 1.325-7.857 8.466-1.204 16.653-3.679 25.172-4.583 5.431-.576 15.54-.261 25.171-1.309Z" fill="#1E2229"/><path d="M566.529 555.118c-.809 1.663-1.233 3.116-1.325 3.273-5.114 9.114-14.017 19.092-22.853 24.879-57.113 37.345-273.573 32.67-331.202.655-11.976-6.652-21.819-17.468-28.152-29.462 54.834 30.876 158.42 34.595 221.574 33.39 18.084-.34 94.684-3.797 107.309-5.892 18.72-3.09 41.652-12.728 54.649-26.843Z" fill="#D5CECD"/><path d="M555.93 547.261c.689-10.606-11.91-18.554-21.197-20.296-10.015-1.872-17.593.969-20.534.655l1.325-20.296c21.978 6.94 69.87 17.232 40.406 39.937ZM235.989 508.633c.345.746 1.325 2.056 1.987 2.619-.225 1.1-.41 2.174-.662 3.274-19.806 1.859-39.479 14.037-35.77 36.009-49.918-22.928 10.771-39.335 34.445-41.902Z" fill="#F3F1F1"/><path d="M275.733 567.557c1.723.458 3.551.458 5.3.655 14.109 1.624 28.536 2.684 42.725 3.273 5.378.223 11.035-.838 16.228-.654.133 0-.781.537 2.65.654 2.65.092 5.299-.078 7.949 0l.331 3.274c-23.913-.262-47.653-2.357-71.539-3.274-4.439-1.139-5.26-3.823-5.631-3.928.57.066.61-.157.662-.655.557 0 .689.485 1.325.655Z" fill="#182435"/><path d="M286.332 500.122c-5.829 5.094-9.022 14.443-10.599 21.605-4.12-2.985-4.57-7.018-4.968-7.201-.529-.249-9.445 2.815-11.26 1.964-.729-.341-.769-6.39-13.911-5.238-2.967.262-4.478 4.413-6.293.655.451-.917.57-2.829.663-2.947 3.245-4.569 38.79-8.197 46.368-8.838Z" fill="#F3F1F1"/><path d="M459.882 496.194c.225 0 3.749 1.964 3.974 1.964-.662 2.658-3.245 2.566-5.299 2.619-10.121.275-50.078-4.976-67.896-3.929-2.279-1.872-.265-3.116-.331-3.273 23.223-.249 46.381 1.519 69.552 2.619Z" fill="#20150F"/><path d="M315.478 318.112c-1.484.89-4.995 4.635-6.624 5.892-25.887 20.113-44.13 50.57-57.629 79.875-1.179-1.597-1.776-3.522-2.65-5.237 1.391-4.413 14.533-29.384 14.573-31.099.053-2.711-3.325-2.894-3.312-3.929 0-1.06 8.373-2.396 15.898-13.748-.477-1.69-11.076.536-15.898-.328-23.595-4.242-25.648-45.777 1.987-49.431-1.947-4.91-4.478-10.134-5.299-15.385 1.815.301 5.1-2.383 6.293-2.619 21.422-4.164-.53 4.504-1.325 5.238-7.565 6.992 12.599 20.06 8.28 29.134h-1.987c-2.451-20.139-25.556-7.817-19.872 13.094 7.485 27.525 57.245 2.96 48.024-20.623 14.93 7.791 4.067 21.828 15.566 10.803 1.431-5.5-15.288-27.511-19.541-32.408 10.029 2.186 21.025 21.513 23.516 30.771Z" fill="#2D0D11"/><path d="M248.575 398.642c-8.664-17.049 2.557-22.693 3.312-26.516.61-3.117-3.709-14.993 7.949-22.588 4.823.864 15.421-1.362 15.898.328-7.525 11.352-15.885 12.688-15.898 13.749 0 1.034 3.365 1.217 3.312 3.928-.04 1.715-13.182 26.686-14.573 31.099Z" fill="#281956"/><path d="M373.769 107.95c1.563 2.2-1.285.406-1.325 2.291 21.343 27.433 50.502 21.684 71.208 65.144 3.246-.144-2.596-24.368-3.643-27.171-.106-.288-3.881-5.028-1.325-4.255 7.684 17.062 5.578 21.998 7.287 33.063 1.828 11.811 6.2 23.465 3.312 35.682-.093-.236-2.054-2.816-2.65-4.256-1.179-2.868.318-11.196-6.293-13.422-7.021-2.357-14.705 0-18.547 6.547-2.782-6.665 11.566-13.801 20.866-7.529-6.24-18.921-7.578-29.043-30.471-18.659 6.624-9.022 21.369-1.742 19.872-5.892-9.538-21.737-34.325-29.214-53.323-40.593-17.474 28.363-37.717 53.661-42.725 87.404-4.451 30.039-3.127 59.448 31.464 69.073 50.396 14.023 83.913-18.162 84.457-66.781 9.538 26.843-5.101 32.971-4.637 36.336.039.328 3.338 3.353 3.974 5.238 5.299 15.792.822 34.739-11.261 46.485 21.846.406 28.947 17.441 19.872 35.681-11.737-13.539-24.071-25.808-42.062-30.771-5.935-1.637-11.645-1.218-12.255-1.309-.238-.04-3.087-1.585-4.637-1.31-.039-.091-1.086.262-1.324-.327-.159-.419-.928-6.56-1.325-8.839-.239-1.348-.265-9.31-.994-9.82-1.537-1.074-20.415 3.731-37.094-3.929l-.994 24.879c-9.366 9.022-4.756-2.985-5.962-8.184-2.464-10.632-30.483-8.812-38.75-10.148.94 3.261 23.091 18.948 20.534 20.296-2.98-3.43-11.075.838-12.585 0-.636-.353-1.842-8.21-4.968-13.421-9.195-15.347-34.71-16.211-38.089-18.005-4.769-2.527-5.842-12.452-17.222-8.511-3.233-.93 6.942-13.736-1.656-17.677.927-3.012 3.272-5.238 3.312-5.565.119-1.1-3.868-13.383-4.637-21.606-3.471-36.886 5.472-76.784 34.445-101.807 2.637 2.317-1.868 6.796-2.649 11.457-.146.877.967 15.766-1.325 7.857-.557-1.938 1.298-13.514-9.274 3.273-12.639 20.061 5.074-4.02 16.56 17.677-5.577 4.832-1.152 5.644-1.987 7.202-.318.589-2.226-2.213-12.917 1.637-2.967-3.195 13.235-4.74 3.312-5.892-19.143 12.413-5.524-1.179 2.981-4.911-21.541-12.845-15.394 4.897-18.547 21.606-1.656 8.76-5.512 17.14-5.962 26.188 6.77-4.439 13.685-3.745 14.242-4.255 1.589-1.467-3.895-5.304 3.312-9.821 4.332-2.724 5.935 2.71 11.923-13.749 2.173 12.112-8.254 20.519 12.917 4.91l-1.656-1.636c-3.869 6.01-.769-4.295-4.968-14.732l.993-.327c5.432 15.883 17.395 12.715 5.631 24.552 3.643 3.3 9.896 3.208 10.267 3.601 1.961 2.108-3.829 5.918 7.618 3.601 1.377 2.383-8.532 5.931-7.949 13.749.079 1.008 5.948 18.462 6.955 18.659 4.266.838 9.433-13.723-.331-17.35 4.69-6.953 5.935-15.438 9.274-22.915 9.922-22.182 37.333-62.459 38.419-66.126 2.186-7.385-2.424-18.004-3.643-18.004-9.287 8.131-24.999-8.197-32.127 4.91 5.048.759 11.407 7.254 12.586 11.785 3.564 13.762-4.067-6.154-10.267-8.839-11.102-4.805-15.766 7.948-18.217-9.166 33.531-10.803 45.561-.131 48.025 0 .556.026 5.06-2.946 6.955-3.273Z" fill="#2D0D11"/><path d="M297.924 214.013c15.143-2.855 18.693 22.954 10.598 22.26-5.59-2.959-6.067-10.999-1.656-15.386-14.202 4.544 2.478 29.187 7.618 10.803 10.678 30.091-12.466 31.466-21.528 16.041-6.637-11.288-5.101-31.819 4.968-33.718Z" fill="#C86C5D"/><path d="M438.353 278.175c1.405 2.697 4.849 16.027 4.306 17.349-.954 2.318-19.223 19.013-23.515 13.422 5.762-13.133 4.212-20.27 15.897-28.153 3.537 1.834.371 1.938.331 2.292-1.033 10.227-8.704 21.37-7.617 21.933 7.313-6.757 10.572-17.114 10.598-26.843ZM441.666 309.601c10.85.013 20.693 12.243 17.222 22.915-1.987 1.597-5.856-11.759-9.274-13.749-4.888-2.855-12.175.798-16.229-4.911-.397-2.632 6.572-4.255 8.281-4.255ZM447.627 261.807c2.292.065 4.199 31.491-1.987 28.807-1.113-3.038-5.856-14.233-5.631-16.04.093-.76 6.585-10.227 7.618-12.767ZM318.79 111.223c2.451 17.114 7.114 4.361 18.216 9.166 6.2 2.685 13.831 22.601 10.267 8.839-1.179-4.531-7.538-11.026-12.585-11.785 7.127-13.107 22.839 3.221 32.126-4.91 1.219 0 5.829 10.619 3.643 18.004-1.086 3.667-28.496 43.944-38.419 66.126-3.338 7.477-4.584 15.962-9.274 22.915 9.764 3.627 4.598 18.188.332 17.35-1.007-.197-6.876-17.651-6.956-18.659-.583-7.818 9.327-11.366 7.949-13.749-11.446 2.317-5.657-1.493-7.617-3.601-.371-.393-6.624-.301-10.268-3.601 11.765-11.837-.198-8.669-5.63-24.552l-.994.327c4.2 10.437 1.1 20.742 4.968 14.731l1.656 1.637c-21.17 15.609-10.744 7.202-12.917-4.91-5.988 16.459-7.591 11.025-11.923 13.749-7.207 4.517-1.722 8.354-3.312 9.821-.556.51-7.472-.184-14.241 4.255.45-9.048 4.305-17.428 5.961-26.188 3.153-16.709-2.994-34.451 18.547-21.606-8.505 3.732-22.124 17.324-2.98 4.911 9.922 1.152-6.28 2.697-3.312 5.892 10.691-3.85 12.599-1.048 12.916-1.637.835-1.558-3.59-2.37 1.988-7.202-11.486-21.697-29.199 2.384-16.56-17.677 10.572-16.787 8.717-5.211 9.273-3.273 2.292 7.909 1.179-6.98 1.325-7.857.782-4.661 5.286-9.14 2.65-11.457 9.154-7.909 13.168-11.196 25.171-15.059Z" fill="#281956"/><path d="M352.241 122.353c3.975-2.173 7.154 14.823 14.573 2.619l.994 1.637c-8.678 11.379-15.063 24.866-22.522 37.973-4.292-8.917-7.949-11.837-18.216-8.184l-.331-1.636c9.485-7.687-2.796-2.122-5.631 2.291 2.16-26.935 7.804-8.996 13.58-20.623-1.352-8.865-13.46-2.122-12.586-5.893.901-3.889 28.271-3.561 17.223 22.26 2.583 4.4 12.161-6.94 12.585-9.166 1.179-6.167-6.173-21.173-1.325-17.022 4.266 15.582 11.142 10.606 1.656-4.256ZM335.681 164.255c11.155 20.99-9.022 12.518-13.91 30.771l-.332-13.421c3.842 3.784 6.558-.301 10.599-3.274-3.14-5.892-6.796-7.372-1.656-13.421 2.04 0 4.928 16.839 5.299-.655Z" fill="#2D0D11"/><path d="m316.471 148.542 1.656.327c-8.333 4.78-5.974 16.892-.331 21.933 18.919-16.171.398 2.174-2.649 9.821-2.054-10.397-14.878-27.053 1.324-32.081Z" fill="#2D0D11"/><path d="M302.561 128.246c7.896 5.984-1.537 16.983-1.656 20.623-.133 4.243 7.472 17.717 8.942 22.588-1.801-3.117-15.473-21.855-15.566-23.243-.292-4.465 9.287-6.259 8.28-19.968ZM323.095 136.757c8.002-.629-5.935 10.305-13.579 8.839-.874-1.519 12.758-8.774 13.579-8.839Z" fill="#2D0D11"/><path d="M359.196 310.91v1.964c-5.339 1.729-11.102 5.068-17.222 5.238-8.161-8.171-17.726-5.225-26.496 0-2.491-9.258-13.487-28.585-23.516-30.771 4.253 4.897 20.972 26.908 19.541 32.408-11.499 11.025-.636-3.012-15.566-10.803 9.22 23.583-40.539 48.148-48.024 20.623-5.684-20.911 17.421-33.233 19.872-13.094h1.987c4.319-9.074-15.845-22.142-8.28-29.134.795-.734 22.747-9.402 1.325-5.238-1.193.236-4.478 2.92-6.293 2.619-2.04-13.16.424-17.861 3.974-29.462 8.598 3.941-1.576 16.747 1.656 17.677 11.38-3.941 12.453 5.984 17.223 8.511 3.378 1.794 28.894 2.658 38.088 18.005 3.126 5.211 4.332 13.068 4.968 13.421 1.51.838 9.605-3.43 12.586 0 2.556-1.348-19.594-17.035-20.535-20.296 8.267 1.336 36.287-.484 38.751 10.148 1.205 5.199-3.405 17.206 5.961 8.184Z" fill="#281956"/><path d="m275.402 301.09 12.254 19.968c-9.035-5.054-3.987-.183-5.63.982-1.418 1.009-6.717-5.381-14.573 9.166.596-16.525 17.302-8.079 6.955-29.134l.994-.982Z" fill="#2D0D11"/><path d="M274.74 291.924c11.671-2.58 21.237 10.187 19.872 11.13-8.624-3.156 2.597 7.581-3.312 16.367-2.067-.471.331-2.762.331-2.946.305-12.662-7.18-26.738-21.859-19.641-1.02-1.558 3.974-4.688 4.968-4.91Z" fill="#2D0D11"/><path d="M438.685 143.959c-2.557-.773 1.218 3.967 1.324 4.255 1.047 2.803 6.889 27.027 3.644 27.171-20.707-43.46-49.866-37.711-71.209-65.144.04-1.885 2.888-.092 1.325-2.291 28.391-4.976 53.363 10.344 64.916 36.009Z" fill="#281956"/><path d="M387.349 113.187c2.53-1.309 33.12 19.144 36.101 23.897-1.365 2.554-32.776-21.435-36.101-22.587v-1.31Z" fill="#2D0D11"/><path d="M335.35 322.04c6.928 7.163 13.976 37.686 14.573 48.122 1.099 19.196-2.292 32.578-15.236 46.812-7.697 4.897-18.07 6.232-25.833 10.475 8.121-16.604 17.355-34.975 15.566-53.686-10.347 32.997-35.902 82.048-65.247 101.48-.636.419-1.351.916-1.987 1.309-1.841 1.139-15.248 8.237-16.229 7.857-9.909-25.665.901-51.552 8.943-75.947 2.265-5.093 1.218-4.36 1.324-4.583 13.5-29.305 31.743-59.762 57.63-79.875 24.628 7.543 19.885 34.36 29.476 32.736 9.552-1.611-4.186-32.539-10.267-36.009 1.775.367 4.385-.799 7.287 1.309Z" fill="#C86C5D"/><path d="M257.186 476.552c11.857 7.333 26.655 12.008 39.744 14.404 6.267 2.619 12.546 5.303 18.548 8.511-4.386 4.845-10.798 6.115-14.573 11.13-2.928-1.807-9.128.786-13.911 1.31-9.631 1.047-19.739.733-25.171 1.309-10.453-3.509-25.609-2.396-32.458-12.767-11.936-18.07 11.976-72.725 20.535-91.987-8.042 24.395-18.852 50.282-8.943 75.947.981.379 14.388-6.718 16.229-7.857Z" fill="#A03E3C"/><path d="M398.278 299.78c.397 2.278 1.166 8.42 1.325 8.839.238.589 1.285.235 1.325.327 5.272 11.379 17.964 21.972 20.534 55.323-5.856 15.189-47.441 13.461-56.635 6.22-6.929-5.46-11.487-40.998-22.853-52.377 6.12-.17 11.883-3.509 17.222-5.238 13.076-4.242 26.47-7.463 39.082-13.094Z" fill="#C86C5D"/><path d="M398.278 299.78c-12.612 5.631-26.006 8.852-39.082 13.094v-1.964l.994-24.879c16.679 7.66 35.558 2.855 37.094 3.928.729.511.756 8.472.994 9.821ZM308.853 427.449c-3.59 1.964-2.477 3.758-4.637 7.529-.636 1.1-2.583 2.671-3.312 3.928-.49.865.689.93.663.982-.053.092.145.603-.663 1.965-1.192 2.016-2.742 3.889-3.974 5.892-7.114 11.601-14.984 22.718-22.522 34.045-5.1-2.121-10.307-4.059-15.235-6.547 29.344-19.432 54.9-68.483 65.247-101.48 1.788 18.711-7.446 37.082-15.567 53.686Z" fill="#A03E3C"/><path d="M334.687 416.974c-5.763 6.337-17.13 16.393-24.84 19.641-3.127 1.309-6.651-.105-8.28 3.273.026-.052-1.153-.117-.662-.982.728-1.257 2.676-2.828 3.312-3.928 2.159-3.771 1.046-5.565 4.636-7.529 7.764-4.243 18.137-5.578 25.834-10.475Z" fill="#A03E3C"/><path d="M274.409 481.79c5.471 2.278 11.115 4.282 16.56 6.547 1.974.825 3.948 1.781 5.961 2.619-13.089-2.396-27.887-7.071-39.744-14.404.636-.393 1.351-.89 1.987-1.309 4.929 2.488 10.135 4.426 15.236 6.547Z" fill="#253C55"/><path d="M458.318 340.333c.159.183.305.38.424.576 5.432 8.865 12.652 16.499 18.362 25.22 9.446 14.39 22.893 43.171 26.324 59.879 1.325 6.456 23.846 78.828 19.872 78.828-6.399 0-18.547-2.619-26.496-6.456-31.239-15.097-28.298-95.863-48.899-122.614-.079-.105-.159-.196-.238-.288-16.825-19.026 16.706 13.683 21.329 27.275 2.65 7.804 11.923 7.804-8.757 1.362-1.815-.563-3.59-1.1-4.279-2.855-3.484-8.733-9.684-12.609-13.288-18.004-24.721-36.991-17.394-48.671-30.974-66.165-2.543-3.274.596-7.962 4.624-6.888.053.013.119.026.172.052 17.872 4.858 30.153 16.84 41.824 30.091v-.013Z" fill="#C86C5D"/><path d="M432.061 169.492c1.497 4.151-13.248-3.129-19.873 5.893-8.107.078 6.413-16.08 19.873-5.893Z" fill="#100C0A"/><path d="M432.06 169.493c-13.46-10.188-27.979 5.971-19.872 5.892 22.893-10.384 24.231-.262 30.471 18.659-9.3-6.272-23.648.864-20.866 7.529 3.842-6.547 11.526-8.904 18.547-6.547 6.611 2.226 5.114 10.554 6.293 13.422.596 1.44 2.557 4.02 2.65 4.255.768 2.004 1.908 3.798 2.65 5.893-.544 48.619-34.061 80.804-84.457 66.78-34.591-9.624-35.915-39.033-31.464-69.072 5.008-33.743 25.251-59.041 42.725-87.404 18.998 11.379 43.785 18.856 53.323 40.593Z" fill="#C86C5D"/><path d="M356.215 227.107c17.58-3.195 19.886 25.482-.662 22.26-12.268-1.925-10.108-20.296.662-22.26ZM437.691 211.394c12.731-2.881 12.254 21.239 9.274 22.26-13.235-1.335-21.29-13.028-9.274-22.26Z" fill="#BF554D"/><path d="M366.813 174.076c5.697-.747 12.758-.223 15.567 5.565-.371 1.309-13.566-.681-26.827 4.91-4.372-4.806 7.604-10.004 11.26-10.475Z" fill="#100C0A"/><path d="M412.519 201.573c20.137 19.655-2.596 33.129-12.916 16.041.794-3.496 9.445 9.807 17.884 1.309 3.074-5.67-7.644-16.957-4.968-17.35Z" fill="#182435"/><path d="M372.775 201.573c6.956-.55 15.289 3.575 11.924 6.547-18.852-11.169-28.391 12.191-26.828 2.947.755-4.505 10.758-9.166 14.904-9.494Z" fill="#20150F"/><path d="m429.742 235.618.994.328c-4.783 9.716-3.816 34.883-18.879 36.991-17.262 2.409-27.701-20.191-34.776-32.408.835-2.619 25.33 15.687 52.661-4.911Z" fill="#253C55"/><path d="M427.093 239.547c-8.519 64.044-48.501 6.665-45.044 4.583 13.235 6.494 34.021 5.46 45.044-4.583ZM405.564 310.255c23.847 23.073 10.095 32.33 38.419 75.292-4.557-.393-16.348-16.485-17.553-16.367-11.195 16.092-51.376 14.01-68.228 5.237-1.762 24.225-13.486 44.141-32.789 58.924-6.849 5.251-15.341 11.301-24.509 8.511.808-1.361.61-1.872.663-1.964 1.629-3.378 5.153-1.964 8.28-3.273 7.71-3.248 19.077-13.304 24.84-19.642 12.943-14.233 16.335-27.615 15.235-46.811-.596-10.437-7.644-40.959-14.573-48.122-.159-.157-1.404-2.553-2.981-3.273-5.113-2.357-16.361-.511-4.305 1.964 6.081 3.47 19.819 34.398 10.267 36.009-9.592 1.624-4.849-25.193-29.477-32.736 1.63-1.257 5.14-5.002 6.624-5.892 8.77-5.225 18.336-8.171 26.496 0 11.367 11.379 15.924 46.917 22.853 52.377 9.194 7.241 50.78 8.969 56.636-6.22-2.57-33.351-15.262-43.944-20.535-55.323 1.55-.275 4.399 1.27 4.637 1.309Z" fill="#F3F1F1"/><path d="M335.35 322.04c-2.902-2.108-5.512-.942-7.287-1.309-12.055-2.475-.808-4.321 4.306-1.964 1.576.72 2.822 3.116 2.981 3.273Z" fill="#2F3849"/><path d="M443.984 385.547c4.107 6.22 11.592 10.463 14.573 22.261 3.259 12.924-.795 17.546-5.962 28.152-.04.079-1.285 1.231-1.325 1.31.08-2.2-12.546 2.579-19.541 3.928-26.986 5.211-88.033 15.058-106.315-7.857 19.302-14.783 31.027-34.699 32.789-58.924 16.851 8.773 57.032 10.855 68.227-5.237 1.206-.118 12.996 15.975 17.554 16.367Z" fill="#80C3D9"/><path d="M451.27 437.27c-2.742 5.565-5.326 7.895-6.624 14.403l-24.509 22.26c-13.698-13.028-39.982-16.145-57.96-13.749-7.922 1.061-21.131 5.932-29.477 8.512 0-.446.159-1.192-.331-1.31-6.479-1.545-13.407-2.147-19.872-3.928-2.61-.72-8.585-3.902-10.268-2.619-1.391-4.334-3.457-8.891-5.299-13.094 1.232-2.004 2.782-3.876 3.975-5.893 9.167 2.79 17.659-3.26 24.509-8.511 18.282 22.915 79.329 13.068 106.315 7.857 6.995-1.349 19.621-6.128 19.541-3.928Z" fill="#5DA6B7"/><path d="M438.684 485.064c-5.074-.904-5.14-.42-10.598 0-.133-.511-3.484-6.535-3.975-7.202 7.909-7.032 15.315-14.312 20.535-23.57-1.908 10.2-2.173 20.781-5.962 30.772Z" fill="#80C3D9"/><path d="M444.646 451.673c-.159.825.159 1.794 0 2.619-5.22 9.258-12.625 16.538-20.534 23.57-.159-.223-3.312-3.3-3.975-3.929l24.509-22.26ZM332.7 468.696c-6.558 2.029-19.872 5.277-25.171 7.856-3.352-4.386-3.696-10.711-5.3-15.713 1.683-1.283 7.658 1.899 10.268 2.619 6.465 1.781 13.394 2.383 19.872 3.928.49.118.331.865.331 1.31Z" fill="#588E99"/><path d="M422.787 459.53c.662.628 3.815 3.705 3.974 3.928.49.668 3.842 6.691 3.975 7.202.053.209-.04.445 0 .655l-12.586 8.511c-12.413-6.521-29.543 1.087-30.471 5.565-.768 3.732 2.478 7.791 2.65 8.184.066.157-1.947 1.401.331 3.273 17.819-1.047 57.775 4.204 67.897 3.929-10.904 5.525-3.18 14.442-7.618 17.677-6.465 4.714-34.736 2.357-46.037 5.237-2.358-6.35-3.551-13.343-11.923-12.439-.663-1.008-1.723-.013-3.312-2.946-2.385-4.4-4.836-22.575-10.93-22.588-4.133 0-12.493 14.941-16.891 17.023-2.239-2.855-5.101-5.605-7.949-7.857-.066-.052-.596-1.27-.663-1.309l3.644-5.893c-3.418.446-6.32 2.462-9.605 3.274-6.24 1.532-12.679 1.794-18.547 5.238-3.167-12.924 8.399-32.775-10.599-11.131-6.001-3.208-12.281-5.892-18.547-8.511-2.014-.838-3.988-1.794-5.962-2.619 3.59-2.632 13.805-10.436 16.56-11.784 5.299-2.58 18.614-5.827 25.172-7.857 8.346-2.58 21.554-7.451 29.477-8.511 17.977-2.396 44.261.72 57.96 13.749Z" fill="#F6EAE5"/><path d="M353.234 493.575c-1.788-1.244-4.094-1.598-5.962-2.619 3.286-.812 6.187-2.828 9.605-3.274l-3.643 5.893Z" fill="#3B7F8F"/><path d="M303.555 496.194c-1.431 1.898-6.903 12.649-4.306 13.749 9.764-.118 16.136-1.074 25.503 1.309-2.968 2.645 8.743 4.308 12.916 8.511 7.697 7.739 5.512 40.186 2.319 51.068-5.193-.184-10.85.877-16.229.654-14.189-.589-28.616-1.649-42.725-3.273-2.014-22.64-2.875-48.855 13.579-66.781-13.367 4.898-17.196 27.747-18.216 40.265-.715 8.721 1.298 18.384-.662 25.861-.636-.17-.769-.641-1.325-.655.331-2.815-.066-22.744-.663-23.897-15.142-3.718-1.218.079 0-2.618.385-.851-.702-6.469 1.988-18.66 1.576-7.162 4.769-16.511 10.598-21.605 1.351-1.179 3.63-.812 3.312-2.619 4.783-.524 10.983-3.116 13.911-1.309Z" fill="#C30031"/><path d="M347.273 490.956c1.868 1.021 4.173 1.375 5.962 2.619.066.039.596 1.257.662 1.309-1.762-.327-7.075 4.753-7.949 5.893-.106.144-1.404-.55-1.325.982.186 3.64 21.701 18.803 10.599 69.726-1.497-.039-3.114.04-4.637 0-2.65-.078-5.299.092-7.949 0 3.736-18.593 9.989-48.697-11.261-58.269 1.259-2.579 1.537-3.588 1.325-6.547 5.034-1.296-.106-4.583-1.325-6.547-.834-1.336-1.934-1.021-2.649-3.928 5.868-3.444 12.307-3.706 18.547-5.238Z" fill="#C30031"/><path d="M353.897 494.884c2.848 2.252 5.71 5.002 7.949 7.857.742.942 1.245 2.213 1.987 3.273.994 3.784 2.398 7.307 3.312 11.13.543 2.266.994 4.23 1.325 6.547 1.391 9.664 1.815 21.698 1.325 31.427-.239 4.897-1.14 9.427-1.325 14.403-.053 1.283-.782 1.519-.662 2.619-2.438-.039-5.021-.602-7.287-.655 5.034-20.99 6.664-58.321-14.573-70.708.875-1.14 6.187-6.22 7.949-5.893Z" fill="#D32949"/><path d="M345.948 500.777c21.237 12.387 19.608 49.718 14.573 70.708-1.722-.039-3.497.04-5.299 0 11.102-50.923-10.413-66.086-10.598-69.726-.08-1.532 1.218-.838 1.324-.982Z" fill="#FF6230"/><path d="M281.033 568.212c-1.749-.197-3.577-.197-5.3-.655 1.961-7.477-.053-17.14.663-25.861 1.02-12.518 4.849-35.367 18.216-40.265-16.454 17.926-15.593 44.141-13.579 66.781ZM331.375 513.216c21.25 9.572 14.997 39.676 11.261 58.269-3.431-.117-2.517-.654-2.649-.654 3.192-10.882 5.378-43.329-2.319-51.068-4.173-4.203-15.884-5.866-12.917-8.511 2.12.537 4.664 1.074 6.624 1.964Z" fill="#EB634C"/><path d="M328.726 496.194c.715 2.907 1.815 2.592 2.65 3.928-.994 1.728 1.205 4.976 1.324 6.547.212 2.959-.066 3.968-1.324 6.547-1.961-.89-4.505-1.427-6.624-1.964-9.367-2.383-15.739-1.427-25.503-1.309-2.597-1.1 2.875-11.851 4.306-13.749 3.775-5.015 10.187-6.286 14.573-11.131 18.997-21.644 7.432-1.793 10.598 11.131Z" fill="#4F6973"/><path d="M332.7 506.669c-.119-1.571-2.318-4.819-1.324-6.547 1.219 1.964 6.359 5.251 1.324 6.547Z" fill="#F8F3F2"/><path d="M555.93 547.261c-12.347 9.52-30.497 14.692-45.706 17.677-.702-1.637-1.192-3.457-1.325-5.237 2.041-3.209-.477-9.887.663-12.767.914-2.305 31.596-22.863 42.725.982 4.796 1.348 1.086-8.394-2.319-12.112-4.067-4.452-10.611-5.408-15.235-8.839 9.287 1.742 21.886 9.69 21.197 20.296Z" fill="#CE9175"/><path d="M501.613 524.346c-2.53 3.706-15.235 15.844-20.534 25.861l8.28 6.22 24.177-35.354c.093 2.252-1.934 6.272.663 6.547 2.941.314 10.519-2.527 20.534-.655 4.624 3.431 11.168 4.387 15.236 8.839 3.404 3.718 7.114 13.46 2.318 12.112-11.128-23.845-41.811-3.287-42.725-.982-1.139 2.88 1.378 9.559-.662 12.767-1.259-17.39 3.484-24.356 2.318-24.879-8.055 9.571-22.707 17.926-18.879 32.08-2.914.419-5.656.956-8.611 1.31-.093-1.506 1.55-2.305 2.65-3.928 7.22-10.725-5.975-9.533-8.611-15.059 2.252-7.031-4.69-10.567-1.988-13.749.914-.458 12.016-10.37 15.567-13.094 4.478-3.418 13.924-6.324 14.573-12.439 4.385.301-2.637 11.968-4.306 14.403Z" fill="#DBB67D"/><path d="M459.882 496.194c-23.171-1.1-46.329-2.868-69.552-2.619-.173-.393-3.418-4.452-2.65-8.184.927-4.478 18.057-12.086 30.471-5.565 7.14 3.758 6.266 8.904 9.273 12.112 1.55 1.65 1.351.105 1.987.327 7.075 2.475 21.197 1.598 29.146 2.292-.993-12.662-5.723-17.193-15.898-23.897 10.692 2.828 18.071 14.888 17.223 25.534Z" fill="#CCAF6B"/><path d="M441.334 470.66c.411.065.967-.092 1.325 0 10.175 6.704 14.904 11.235 15.898 23.897-7.949-.694-22.071.183-29.146-2.292 2.054-3.902 2.146-17.258 1.325-20.95-.04-.21.053-.446 0-.655 5.458-.419 5.524-.904 10.598 0Z" fill="#DBB67D"/><path d="M429.411 492.265c-.636-.222-.437 1.323-1.987-.327-3.007-3.208-2.133-8.354-9.274-12.112l12.586-8.511c.821 3.692.729 17.048-1.325 20.95ZM275.734 521.727c-2.69 12.191-1.603 17.809-1.988 18.66-1.218 2.697-15.142-1.1 0 2.618.597 1.153.994 21.082.663 23.897-.053.498-.093.721-.663.655-11.804-3.365-43.374-3.771-72.201-17.022-3.71-21.972 15.963-34.15 35.769-36.009-1.47 6.39-4.954 12.491-4.637 19.314-9.869.091-9.392.929 0 1.964.729 9.506 8.426 23.203 1.325 3.928-.954-8.315 1.59-20.204 5.3-27.825 1.814 3.758 3.325-.393 6.292-.655 13.142-1.152 13.182 4.897 13.911 5.238 1.815.851 10.731-2.213 11.261-1.964.397.183.848 4.216 4.968 7.201Z" fill="#E3C88C"/><path d="M246.257 530.239c15.911 11.169 19.739 16.145.662 1.964l-.662-1.964Z" fill="#3A4B50"/><path d="m262.154 519.108 4.637 1.965c13.076 15.15 3.127 4.111-4.637-1.965Z" fill="#729099"/><path d="M244.932 515.835c13.009 1.047 13.076 3.928-.331.327l.331-.327Z" fill="#25728D"/><path d="M244.27 540.059c6.531 9.886 4.226 11.576-.332.328l.332-.328Z" fill="#3A4B50"/><path d="M239.302 503.395c.583 2.253-.901 5.801-1.325 7.857-.662-.563-1.643-1.873-1.987-2.619-.649-1.401-1.378-2.619-1.987-3.928-8.757-18.686 4.557-4.138 5.299-1.31Z" fill="#8ABDB7"/><path d="M508.9 559.701c.132 1.78.622 3.6 1.324 5.237-.41.079-.914-.078-1.324 0-8.771 1.676-13.434 1.519-16.56 1.964-3.829-14.154 10.823-22.509 18.878-32.08 1.166.523-3.577 7.489-2.318 24.879Z" fill="#1E4C55"/><path d="M471.805 570.176c3.908-.354 8.015-1.493 11.923-1.964 2.954-.354 5.697-.891 8.611-1.31 3.127-.445 7.79-.288 16.56-1.964l.663 1.637c-2.637 3.536-36.313 6.534-37.757 5.238v-1.637Z" fill="#161D13"/><path d="M476.442 513.216c-1.206 6.678-.994 16.289-4.637 21.278 2.901 3.13 1.947 2.017 3.974.982-2.702 3.182 4.24 6.718 1.987 13.749-.808-1.689.106-5.866-4.636-12.112-11.924-15.687-24.96-5.683-28.153-5.565-.238 0-1.086-1.323-1.324-1.309-23.887.759-17.554-4.191-21.197-5.238-15.156-4.36-18.958 9.153-21.197 9.821-2.213.654-11.526-.642-13.248 0-1.444.536-4.332 9.427-5.299 9.82-5.286 2.187-11.844-4.033-12.917 10.476.49-9.729.066-21.763-1.325-31.427 1.802-2.906 8.161 3.824 11.923 4.256l-13.248-10.803c-.914-3.823-2.318-7.346-3.312-11.13 1.696 2.41 2.623 6.063 3.312 6.547 3.749 2.672 8.466-3.561 16.56 6.875 1.842 2.37.08 3.994 2.65 3.601 2.119-.328 8.015-5.186 10.598-6.547 4.836 6.455 4.531 8.878 4.968 9.166.146.091 2.809-1.925 2.981-1.965 11.301-2.88 39.572-.523 46.037-5.237 4.438-3.235-3.285-12.152 7.618-17.677 2.053-.053 4.637.039 5.299-2.619 3.126-.053 5.723-1.768 8.611-2.619l-8.611 24.552c8.717 2.435 9.83-7.032 12.586-6.875Z" fill="#E3C88C"/><path d="m513.536 521.073-24.177 35.354-8.28-6.22c5.299-10.017 18.004-22.155 20.534-25.861 9.088-3.692 11.725-7.883 11.923-3.273Z" fill="#D9A181"/><path d="M481.741 492.265c-3.206 5.225-4.093 14.299-5.299 20.951-2.755-.157-3.868 9.31-12.586 6.875l8.612-24.552a96.087 96.087 0 0 0 9.273-3.274Z" fill="#DBB67D"/><path d="M504.925 498.158c.079.144-.795 1.623 0 3.273.914 1.912.358 3.051 1.656 3.929.384.248 7.167 1.401 8.942 1.964l-1.325 20.296c-2.596-.275-.569-4.295-.662-6.547-.199-4.61-2.835-.419-11.923 3.273 1.669-2.435 8.691-14.102 4.305-14.403-.649 6.115-10.095 9.021-14.572 12.439-3.551 2.724-14.653 12.636-15.567 13.094-2.027 1.035-1.073 2.148-3.974-.982 3.643-4.989 3.431-14.6 4.637-21.278 1.205-6.652 2.093-15.726 5.299-20.951 2.053-.851 7.313-5.119 7.949-5.237 2.676-.498 7.471 1.492 9.604 3.273.742.616 5.3 7.189 5.631 7.857Z" fill="#E3C88C"/><path d="M491.345 492.265c2.941.498 2.027 11.209 2.319 13.422l-7.287-1.964c-.132 16.224-9.843 28.44-7.286 18.986.146-.55 1.179-.117 1.325-.654.556-2.161 4.04-13.658 3.974-14.404-.146-1.741-2-.615-1.987-1.309.159-8.184 1.563-10.24 8.942-14.077Z" fill="#DBB67D"/><path d="M477.767 549.225c2.637 5.526 15.832 4.334 8.611 15.059-26.893 2.042-8.213-8.485-20.203-22.261-12.453 3.405-10.439-5.316-12.585-5.892-3.988-1.087-8.002 10.947-13.911-2.619-12.413.563-1.576 17.337-24.509 1.964-11.724 11.589-7.71 4.295-14.573 3.274-17.567-2.619-1.378 26.542.331 33.39h-.662c-5.962-19.091-22.681-20.217-31.795-2.619.185-4.976 1.086-9.506 1.325-14.403 1.073-14.509 7.63-8.289 12.916-10.476.967-.393 3.856-9.284 5.3-9.82 1.722-.642 11.035.654 13.248 0 2.239-.668 6.041-14.181 21.197-9.821 3.643 1.047-2.69 5.997 21.196 5.238.239 0 1.087 1.322 1.325 1.309 3.193-.118 16.229-10.122 28.152 5.565 4.743 6.246 3.829 10.423 4.637 12.112Z" fill="#1E4C55"/><path d="M400.266 572.14c-10.877.052-21.568.17-32.458 0-.119-1.1.609-1.336.662-2.619 9.115-17.598 25.834-16.472 31.796 2.619Z" fill="#4D7D87"/><path d="M486.379 564.284c-1.1 1.623-2.743 2.422-2.65 3.928-3.908.471-8.015 1.61-11.923 1.964-23.873 2.161-47.004 1.82-70.877 1.964-1.709-6.848-17.899-36.009-.332-33.39 6.863 1.021 2.849 8.315 14.573-3.274 22.933 15.373 12.096-1.401 24.509-1.964 5.909 13.566 9.923 1.532 13.911 2.619 2.146.576.132 9.297 12.585 5.892 11.99 13.776-6.69 24.303 20.204 22.261Z" fill="#4D7D87"/><path d="M458.888 557.736c.954-.209 5.657 8.486 3.975 9.821-5.922-.903-7.167-4.819-3.975-9.821Z" fill="#26545A"/><path d="M368.47 523.691c-.331-2.317-.781-4.281-1.324-6.547l13.248 10.803c-3.763-.432-10.122-7.162-11.924-4.256Z" fill="#B49827"/><path d="M392.979 511.252c1.192 1.807 2.676 3.496 3.975 5.238-2.584 1.361-8.479 6.219-10.599 6.547-4.61-8.538-8.585-21.435-19.21-10.476-.688-.484-1.616-4.137-3.312-6.547-.741-1.06-1.245-2.331-1.987-3.273 4.399-2.082 12.758-17.036 16.891-17.023 6.095.013 8.545 18.188 10.93 22.588 1.59 2.933 2.65 1.938 3.312 2.946Z" fill="#6DA9B6"/><path d="M404.903 523.691c-.172.04-2.835 2.056-2.981 1.965-.437-.288-.133-2.711-4.968-9.166-1.298-1.742-2.782-3.431-3.975-5.238 8.373-.904 9.566 6.089 11.924 12.439ZM386.355 523.037c-2.57.393-.808-1.231-2.649-3.601-8.095-10.436-12.811-4.203-16.56-6.875 10.624-10.959 14.599 1.938 19.209 10.476Z" fill="#3B7F8F"/></svg>