<svg width="182" height="182" viewBox="0 0 182 182" fill="none" xmlns="http://www.w3.org/2000/svg">
<g clip-path="url(#clip0_58_367)">
<path d="M67.7808 92.989C67.6517 93.0625 67.5099 93.1107 67.3628 93.131C67.0341 93.7564 66.9459 94.362 67.5931 94.6848C68.7905 95.2829 68.3033 92.6993 67.7808 92.989Z" fill="#D5C757"/>
<path d="M102.928 103.685C103.403 103.688 103.687 102.366 103.565 102.033C103.507 101.904 103.413 101.794 103.295 101.718C103.176 101.641 103.038 101.601 102.897 101.601C102.699 101.822 102.544 102.078 102.438 102.355C102.317 102.709 102.355 103.682 102.928 103.685Z" fill="#D5C757"/>
<path d="M96.8141 46.37C96.8982 46.2495 96.983 46.1267 97.0692 46.0071C97.7797 43.5852 98.576 41.1815 99.395 38.7966C99.9551 37.1745 100.548 35.565 101.161 33.9609C101.44 33.2361 101.978 32.3626 102.095 31.6102C102.212 30.8578 101.882 30.5247 101.363 30.3819C100.431 33.3001 99.434 36.193 98.6019 39.1448C97.9317 41.527 97.4404 43.9783 96.8141 46.37Z" fill="#CE4A2D"/>
<path d="M96.3819 48.4731C96.4342 48.2726 96.4894 48.0707 96.5438 47.871C96.5052 47.8211 96.4713 47.7676 96.4425 47.7114C96.3721 47.9526 96.3039 48.1946 96.2291 48.4341L96.3819 48.4731Z" fill="#D5C757"/>
<path d="M111.737 42.9509C111.826 43.0185 111.898 43.1053 111.948 43.2048C111.999 43.3043 112.026 43.4139 112.028 43.5255C112.03 43.637 112.007 43.7476 111.96 43.8489C111.914 43.9502 111.845 44.0397 111.759 44.1105C110.949 44.8009 109.92 44.7848 108.908 44.9101C107.707 45.0521 106.515 45.2571 105.337 45.5243C104.078 45.8158 102.838 46.1835 101.623 46.6253L101.427 46.6998C108.72 49.375 116.029 52.3599 123.973 51.3333C127.468 50.883 130.921 49.7114 133.724 47.5265C136.357 45.4736 138.206 42.6441 140.365 40.1121C127.219 37.2898 111.289 35.0021 100.912 44.5971C102.083 44.1681 103.275 43.7982 104.483 43.4888C106.436 42.9392 109.889 41.7002 111.737 42.9509ZM115.805 43.3614C117.697 42.8585 119.677 42.8109 121.624 42.7328C123.325 42.6677 125.207 42.417 126.821 43.0404C126.966 43.1006 127.09 43.2016 127.179 43.3312C127.268 43.4608 127.317 43.6134 127.321 43.7705C127.325 43.9276 127.283 44.0825 127.201 44.2163C127.119 44.3502 126.999 44.4572 126.857 44.5245C125.183 45.2168 123.172 44.9867 121.4 44.9514C119.476 44.9106 117.571 44.8765 115.696 44.4231C115.1 44.2804 115.347 43.483 115.805 43.3614Z" fill="#CE4A2D"/>
<path d="M75.8941 70.457C71.6158 72.965 67.3674 75.304 63.6279 78.6172C59.8884 81.9304 56.6493 85.9536 54.5684 90.5272C50.7772 98.862 51.1652 108.729 53.3895 117.452C55.4975 125.748 61.2825 131.661 65.7249 138.697C66.8275 140.4 67.7809 142.195 68.5745 144.062C69.367 145.984 69.7578 148.031 70.5113 149.963C71.2371 151.823 72.836 154.24 75.1813 153.523C76.6299 153.08 77.7706 151.667 78.8906 150.717C82.0664 148.022 86.1704 146.909 89.8754 145.18C93.7258 143.376 97.3601 141.142 100.709 138.52C114.095 128.026 122.02 110.636 118.099 93.6428C116.266 85.6983 112.021 78.5598 108.002 71.5615C105.932 67.9551 103.869 64.3387 102.11 60.5712C100.525 57.177 98.8578 50.6285 94.0454 50.8758C93.7419 50.8941 93.4408 50.8121 93.1884 50.6425C89.967 51.9486 88.2366 57.972 86.7547 60.4193C84.1134 64.7764 80.26 67.8976 75.8941 70.457ZM70.5661 78.4312C70.6712 78.2596 70.8221 78.1208 71.0017 78.0302C71.1813 77.9397 71.3825 77.901 71.5828 77.9186C71.6733 77.9276 71.7583 77.966 71.8249 78.028C71.8915 78.09 71.936 78.1721 71.9516 78.2618C71.9767 78.4736 71.9498 78.6883 71.8731 78.8873C71.7964 79.0863 71.6723 79.2636 71.5115 79.4035C71.4687 79.5273 71.39 79.6356 71.2856 79.7145C71.1811 79.7934 71.0555 79.8394 70.9249 79.8466C70.8527 79.8576 70.779 79.8496 70.7109 79.8233C70.6428 79.797 70.5828 79.7533 70.5368 79.6966L70.5212 79.6655L70.5016 79.6579C69.8461 79.4673 70.1216 78.5705 70.5748 78.4346L70.5661 78.4312ZM61.5275 102.291C61.1602 102.448 60.7465 102.458 60.3721 102.319C60.0955 102.21 59.857 102.022 59.6866 101.778C59.5162 101.535 59.4214 101.246 59.4141 100.949C59.4067 100.651 59.4872 100.358 59.6454 100.107C59.8036 99.8547 60.0325 99.6552 60.3034 99.5331C60.67 99.376 61.0828 99.3659 61.4567 99.5046C61.7336 99.6129 61.9725 99.8007 62.1433 100.044C62.3141 100.288 62.4092 100.577 62.4168 100.874C62.4244 101.172 62.344 101.465 62.1858 101.717C62.0276 101.969 61.7986 102.169 61.5275 102.291ZM58.5633 116.338C58.4733 116.376 58.3723 116.377 58.2813 116.342C58.1903 116.307 58.1164 116.238 58.0749 116.149C58.024 115.988 57.9969 115.819 57.9946 115.649C57.9241 115.456 57.93 115.243 58.0112 115.054C58.0722 114.913 58.1642 114.788 58.2803 114.689C58.3965 114.589 58.5337 114.517 58.6817 114.478C58.9915 114.402 59.3879 114.485 59.4548 114.844C59.4996 115.157 59.4366 115.476 59.2761 115.748C59.1157 116.02 58.8673 116.23 58.572 116.342L58.5633 116.338ZM68.4328 97.3092C66.3629 97.7334 64.6301 95.8598 64.634 93.8673C64.6631 93.1693 64.8787 92.4919 65.2584 91.9058C65.6381 91.3197 66.1679 90.8464 66.7926 90.5352C68.1903 89.5477 70.2131 91.1044 70.758 92.544C71.4944 94.4614 70.5832 96.8709 68.4415 97.3126L68.4328 97.3092ZM114.55 102.902C114.696 102.868 114.777 103.06 114.703 103.156C115.165 103.134 115.644 103.379 115.703 103.909C115.766 104.485 115.307 104.807 114.818 104.839C114.77 104.909 114.719 104.977 114.664 105.043C114.62 105.102 114.558 105.145 114.487 105.166C114.417 105.186 114.341 105.183 114.272 105.157C113.355 104.664 113.492 103.145 114.559 102.905L114.55 102.902ZM105.294 123.765C105.423 123.671 105.571 123.607 105.728 123.576C105.885 123.546 106.046 123.55 106.201 123.589C106.207 123.59 106.213 123.592 106.218 123.596C106.281 123.577 106.343 123.564 106.403 123.552C106.491 123.54 106.581 123.556 106.659 123.599C106.737 123.641 106.8 123.707 106.838 123.788C106.967 124.053 107.005 124.353 106.947 124.642C106.889 124.932 106.738 125.194 106.517 125.389C106.465 125.431 106.403 125.458 106.337 125.468C106.271 125.478 106.203 125.471 106.141 125.447L105.086 125.039C105.013 125.008 104.952 124.955 104.911 124.887C104.87 124.82 104.85 124.741 104.856 124.662C104.856 124.489 104.896 124.318 104.972 124.163C105.048 124.008 105.158 123.872 105.294 123.765ZM104.097 110.947L104.204 110.916C104.379 110.828 104.575 110.788 104.77 110.798C104.903 110.776 105.04 110.791 105.165 110.841C105.494 110.913 105.788 111.094 106.002 111.354C106.161 111.565 106.265 111.811 106.305 112.072C106.345 112.333 106.319 112.599 106.23 112.847C106.122 113.124 105.933 113.363 105.69 113.533C105.446 113.703 105.157 113.797 104.86 113.803C104.521 113.822 104.186 113.721 103.912 113.519L103.632 113.245L103.43 112.917L103.372 112.821C103.293 112.652 103.251 112.468 103.246 112.281C103.241 112.094 103.275 111.908 103.345 111.735C103.412 111.561 103.512 111.401 103.641 111.266C103.77 111.131 103.925 111.024 104.096 110.949L104.097 110.947ZM93.9531 135.965C94.0548 136.049 94.13 136.161 94.1697 136.287C94.5747 136.471 94.83 137.044 94.9137 137.47C94.9231 137.534 94.9179 137.599 94.8985 137.661C94.879 137.723 94.8458 137.779 94.8014 137.826C94.757 137.874 94.7025 137.91 94.642 137.933C94.5815 137.956 94.5166 137.965 94.4522 137.959C94.1905 137.932 93.943 137.827 93.742 137.657C93.697 137.669 93.6503 137.674 93.6037 137.671C93.5266 137.672 93.4504 137.655 93.3806 137.622C93.3108 137.589 93.2492 137.542 93.2002 137.482C93.1511 137.423 93.116 137.353 93.0972 137.278C93.0785 137.203 93.0766 137.125 93.0918 137.049C93.0004 136.933 92.9524 136.789 92.9562 136.641C92.9556 136.519 92.9911 136.4 93.0583 136.299C93.1254 136.197 93.2212 136.118 93.3334 136.072C93.3334 136.072 93.3528 136.067 93.3641 136.064C93.3963 136.018 93.4373 135.979 93.4848 135.949C93.5322 135.919 93.5851 135.9 93.6404 135.891C93.6956 135.882 93.7521 135.884 93.8064 135.898C93.8607 135.911 93.9118 135.935 93.9567 135.969L93.9531 135.965ZM108.642 81.0594C108.689 81.0226 108.743 80.9966 108.8 80.9832C108.858 80.9699 108.918 80.9696 108.975 80.9823C109.105 80.9785 109.235 81.0006 109.356 81.0475C109.477 81.0944 109.588 81.165 109.682 81.2553L110.118 81.4238C110.183 81.4481 110.24 81.4893 110.284 81.5434C110.328 81.5974 110.357 81.6622 110.368 81.731C110.381 81.9278 110.341 82.1245 110.25 82.2997C110.16 82.4749 110.023 82.6218 109.854 82.7242C109.727 82.8022 109.585 82.8522 109.437 82.8711C109.289 82.89 109.138 82.8773 108.996 82.8338C108.848 82.8349 108.703 82.7909 108.581 82.7078C108.458 82.6247 108.364 82.5064 108.311 82.3685C108.224 82.1427 108.209 81.8956 108.269 81.6612C108.328 81.4267 108.459 81.2165 108.642 81.0594ZM101.517 99.6963C101.57 99.6618 101.622 99.6368 101.676 99.6075C102.708 98.3985 105.235 99.1942 105.965 100.685C106.939 102.669 105.87 105.703 103.644 106.292C101.361 106.898 99.4462 104.522 99.7729 102.368C99.8602 101.826 100.061 101.307 100.361 100.847C100.661 100.386 101.055 99.9944 101.517 99.6963ZM91.9138 121.296C91.9597 121.261 92.0129 121.236 92.0696 121.224C92.1263 121.212 92.185 121.213 92.2413 121.227C92.2976 121.241 92.3501 121.267 92.3948 121.304C92.4396 121.341 92.4754 121.387 92.4997 121.44C92.5401 121.527 92.5863 121.611 92.6382 121.692C92.6934 121.668 92.7529 121.657 92.8128 121.659C92.8727 121.66 92.9316 121.674 92.9855 121.7C93.1146 121.774 93.2185 121.885 93.2837 122.019C93.508 122.477 93.2453 123.035 92.8475 123.3C92.8153 123.319 92.7818 123.337 92.7474 123.352C92.6892 123.4 92.6238 123.438 92.5535 123.465C92.4794 123.496 92.3992 123.508 92.3193 123.502C92.2394 123.496 92.162 123.472 92.0934 123.43C91.9507 123.39 91.8191 123.317 91.7083 123.218C91.5976 123.119 91.5107 122.997 91.4541 122.86C91.3433 122.585 91.3283 122.282 91.4118 121.998C91.4953 121.714 91.6722 121.467 91.9138 121.296ZM74.2665 127.312C74.1854 127.345 74.0953 127.349 74.0115 127.324C73.9848 127.33 73.9571 127.332 73.9299 127.328C73.7862 127.298 73.6592 127.215 73.575 127.095C73.4909 126.974 73.456 126.826 73.4776 126.681C73.4611 126.615 73.4494 126.548 73.4426 126.48C73.4263 126.307 73.4519 126.133 73.5172 125.973C73.5825 125.813 73.6856 125.67 73.8177 125.558C74.1745 125.282 74.613 125.542 74.8499 125.857C74.9618 125.996 75.0357 126.161 75.0645 126.337C75.0933 126.513 75.0759 126.694 75.0141 126.861C74.9558 127.007 74.8519 127.13 74.7179 127.212C74.5839 127.293 74.427 127.329 74.2709 127.314L74.2665 127.312ZM94.0082 96.2407C94.0622 96.1692 94.1378 96.117 94.2237 96.0919C94.3096 96.0668 94.4014 96.0702 94.4853 96.1014C95.0406 96.2985 95.5508 96.749 95.6364 97.3589C95.6691 97.6163 95.6209 97.8774 95.4986 98.1061C95.3764 98.3349 95.186 98.5198 94.954 98.6353C94.8437 98.6941 94.722 98.7284 94.5972 98.736C94.4724 98.7435 94.3474 98.7241 94.2308 98.679C94.1141 98.634 94.0085 98.5643 93.9211 98.4748C93.8338 98.3852 93.7666 98.2779 93.7243 98.1601C93.6745 98.0241 93.6568 97.8784 93.6727 97.7344C93.6887 97.5904 93.7378 97.4521 93.8162 97.3303C93.7493 96.9558 93.8206 96.5697 94.0169 96.244L94.0082 96.2407ZM75.2425 141.477C75.3384 141.55 75.409 141.651 75.4443 141.766C75.4768 141.847 75.4831 141.936 75.4624 142.022C75.4418 142.107 75.3951 142.183 75.329 142.24C75.2716 142.3 75.2006 142.344 75.1222 142.37C75.0438 142.395 74.9603 142.402 74.879 142.388C74.7342 142.488 74.563 142.543 74.387 142.546C74.3263 142.544 74.268 142.521 74.2213 142.482L74.1908 142.47C73.6872 142.243 73.9322 141.653 74.3014 141.429C74.3257 141.324 74.3857 141.23 74.4713 141.164C74.4979 141.126 74.5339 141.095 74.576 141.074C74.6181 141.054 74.6647 141.045 74.7112 141.049C74.7265 141.054 74.7428 141.038 74.7592 141.034C74.8433 141.022 74.929 141.038 75.0036 141.078C75.0782 141.119 75.1377 141.183 75.1734 141.26C75.2125 141.328 75.2389 141.403 75.2512 141.48L75.2425 141.477ZM85.0996 114.304C85.1395 114.479 85.1283 114.662 85.0672 114.831C85.006 115 84.8976 115.148 84.7549 115.257C84.6409 115.332 84.5064 115.37 84.3699 115.366C84.2334 115.362 84.1015 115.315 83.9924 115.233C83.9607 115.221 83.9308 115.204 83.9037 115.184C83.7678 115.072 83.6588 114.931 83.5849 114.771C83.511 114.611 83.4741 114.437 83.477 114.261C83.4798 114.084 83.5224 113.911 83.6014 113.754C83.6805 113.597 83.794 113.459 83.9335 113.352C83.9953 113.304 84.0709 113.277 84.1491 113.276C84.2274 113.274 84.3039 113.298 84.3674 113.344C84.69 113.599 85.0247 113.894 85.1083 114.307L85.0996 114.304ZM94.558 81.8024L94.6179 81.803C94.6582 81.8071 94.6982 81.8142 94.7375 81.8241C94.8431 81.786 94.9592 81.7898 95.0621 81.8347C95.165 81.8796 95.2468 81.9622 95.2908 82.0655C95.3573 82.2416 95.3705 82.4334 95.3288 82.617C95.3761 82.7462 95.3925 82.8848 95.3768 83.0216C95.361 83.1583 95.3135 83.2895 95.2381 83.4046C94.9804 83.8067 94.3002 83.9402 94.0603 83.4512C93.956 83.3971 93.8648 83.3208 93.7933 83.2276C93.6884 83.0638 93.6345 82.8725 93.6386 82.678C93.6426 82.4834 93.7044 82.2945 93.816 82.1353C93.8933 82.0129 94.005 81.9162 94.1369 81.857C94.2689 81.7978 94.4153 81.7788 94.558 81.8024ZM99.0576 68.3863C99.0736 68.4742 99.0661 68.5648 99.0359 68.6488C99.0057 68.7329 98.9539 68.8075 98.8857 68.8651C98.8175 68.9228 98.7353 68.9613 98.6475 68.977C98.5596 68.9926 98.4692 68.9848 98.3853 68.9542C98.35 68.9386 98.3162 68.9197 98.2844 68.8977C98.2258 68.9146 98.1644 68.9189 98.104 68.9104C98.0437 68.9019 97.9858 68.8807 97.9343 68.8482C97.8827 68.8157 97.8385 68.7727 97.8047 68.7219C97.7709 68.6712 97.7482 68.6138 97.7381 68.5537C97.66 67.7685 98.9522 67.6006 99.0576 68.3863ZM80.0742 100.669C80.5906 102.481 80.3223 104.971 82.7953 105.249C85.4869 105.552 85.4403 102.338 86.6186 100.802C86.7273 100.663 86.8735 100.559 87.0398 100.501C87.2061 100.444 87.3855 100.435 87.5565 100.477C87.7275 100.519 87.8829 100.609 88.0041 100.737C88.1252 100.865 88.2071 101.025 88.2397 101.198C88.8325 104.535 85.5934 108.096 82.2264 107.427C78.9702 106.776 77.4857 103.27 79.2336 100.464C79.479 100.088 79.9836 100.325 80.0742 100.669ZM94.3852 56.7861C94.7383 56.7233 95.102 56.7983 95.4016 56.9958C95.4791 57.008 95.5549 57.0297 95.6272 57.0604C96.4535 57.4449 95.87 58.5688 95.2552 58.838L95.2003 58.8569C95.1986 58.8645 95.1958 58.8719 95.1919 58.8787C95.167 58.9432 95.1256 59.0001 95.0719 59.0436C95.0183 59.0871 94.9541 59.1157 94.8859 59.1267C94.6855 59.157 94.4808 59.1422 94.2868 59.0833C94.0928 59.0244 93.9144 58.9229 93.7646 58.7862C93.7006 58.7366 93.654 58.6681 93.6313 58.5904C93.6086 58.5127 93.611 58.4298 93.6382 58.3536C93.6652 58.2837 93.6921 58.2139 93.7334 58.1521C93.6707 58.0007 93.6388 57.8383 93.6395 57.6744C93.6274 57.4591 93.6989 57.2475 93.839 57.0838C93.9792 56.9201 94.1771 56.817 94.3914 56.796L94.3852 56.7861ZM81.0105 86.5404C80.9419 86.6883 80.8405 86.8186 80.7141 86.9214C80.5876 87.0242 80.4395 87.0969 80.2808 87.1338C80.1239 87.312 79.9251 87.4481 79.7023 87.5298C79.649 87.5525 79.5912 87.5629 79.5333 87.5601C79.4754 87.5574 79.4188 87.5416 79.3679 87.5139C79.3169 87.4863 79.2728 87.4475 79.2389 87.4004C79.205 87.3534 79.1821 87.2992 79.1719 87.2421C79.1495 87.0846 79.1438 86.9252 79.1548 86.7665C79.0822 86.6809 79.0273 86.5817 78.9932 86.4747C78.9592 86.3677 78.9468 86.255 78.9567 86.1431C78.9852 85.9366 79.0741 85.7431 79.2122 85.5871C79.3504 85.4312 79.5315 85.3197 79.7329 85.2667C79.8504 85.1324 80.0079 85.0394 80.1822 85.0015C80.3564 84.9636 80.5383 84.9828 80.7008 85.0562C81.1939 85.2718 81.2006 86.1122 81.0105 86.5404ZM85.2024 69.9127C85.2262 69.8377 85.2604 69.7665 85.304 69.7011C85.3635 69.6141 85.4426 69.5424 85.5349 69.4916C85.6272 69.4408 85.7301 69.4124 85.8353 69.4086C85.9405 69.4049 86.0452 69.4259 86.1408 69.4701C86.2365 69.5142 86.3204 69.5802 86.386 69.6627C86.4449 69.7502 86.4859 69.8487 86.5065 69.9522C86.5271 70.0558 86.5268 70.1624 86.5058 70.2659C86.4848 70.3694 86.4435 70.4676 86.3842 70.555C86.3249 70.6423 86.2488 70.7169 86.1604 70.7745C86.0654 70.8353 85.9561 70.8701 85.8435 70.8752C85.7996 70.879 85.7555 70.8779 85.7119 70.8721L85.5593 70.8131C85.5229 70.8779 85.4693 70.9315 85.4045 70.9678C85.3396 71.0042 85.2661 71.022 85.1918 71.0192C85.1175 71.0164 85.0455 70.9932 84.9835 70.9521C84.9216 70.911 84.8722 70.8536 84.8407 70.7862C84.7726 70.6211 84.772 70.4359 84.8391 70.2703C84.9062 70.1048 85.0355 69.9723 85.1992 69.9014L85.2024 69.9127ZM68.7827 112.416C68.8713 112.302 68.9961 112.221 69.1366 112.187C69.4049 112.143 69.6794 112.208 69.8999 112.367C70.1204 112.526 70.2689 112.766 70.3127 113.035C70.3232 113.11 70.3095 113.186 70.2735 113.252C70.2375 113.319 70.1812 113.372 70.1128 113.404C69.9665 113.485 69.8032 113.53 69.6361 113.536C69.4227 113.83 69.0089 113.961 68.7449 113.593C68.6233 113.408 68.5671 113.188 68.5854 112.967C68.5253 112.874 68.4801 112.772 68.4515 112.664C68.4448 112.622 68.4497 112.579 68.4656 112.54C68.4816 112.5 68.5081 112.466 68.5422 112.44C68.5763 112.415 68.6167 112.399 68.6591 112.395C68.7015 112.39 68.7442 112.398 68.7827 112.416Z" fill="#D5C757"/>
<path d="M82.4271 43.6801C84.6909 45.3525 87.8145 46.1982 90.814 46.3063C90.6123 46.1406 90.4167 45.9722 90.2303 45.8124C89.171 44.9014 88.2282 43.8574 87.7136 42.5474C87.6688 42.4347 87.6613 42.3105 87.6923 42.1932C87.7232 42.0759 87.791 41.9717 87.8856 41.8959C87.9802 41.8201 88.0966 41.7767 88.2177 41.7721C88.3388 41.7675 88.4581 41.802 88.5582 41.8704C89.6798 42.5547 90.6496 43.4311 91.6966 44.2244C92.4728 44.8103 93.4429 45.283 93.9157 46.1428L94.0236 46.1294C93.5292 44.7018 93.0858 43.2588 92.1961 41.9794C90.999 40.2627 89.3046 38.9458 87.5025 37.9084C84.4331 36.1228 80.3604 34.2105 76.6356 34.3464C77.8834 37.8359 79.3815 41.4298 82.4271 43.6801Z" fill="#CE4A2D"/>
<path d="M81.5952 46.0725C83.6073 47.3517 85.9836 47.9263 88.2989 48.4121C89.6281 48.7189 90.991 48.8544 92.3545 48.8154C90.4713 49.5676 88.8372 51.2336 87.7871 53.0351C86.4862 55.2665 85.657 57.7102 84.1985 59.863C82.7678 61.983 81.0088 63.8612 78.9877 65.4269C75.085 68.4488 70.4571 70.3753 66.4112 73.1963C62.4705 75.9047 58.9874 79.2261 56.0934 83.0349C50.0941 91.0607 48.4621 100.709 49.5586 110.518C50.0936 115.318 51.098 120.173 53.2125 124.547C55.1248 128.509 57.822 132.014 60.3976 135.555C62.9733 139.096 65.4399 142.771 66.7353 146.969C67.9036 150.769 69.0828 156.08 73.9832 156.456C75.9294 156.606 77.6394 155.569 79.0677 154.353C80.7519 152.914 82.2867 151.603 84.3162 150.647C88.4487 148.699 92.6687 147.175 96.5919 144.795C112.463 135.219 123.423 117.948 121.969 99.0059C121.266 89.8651 117.196 81.6281 112.723 73.7923C110.495 69.8888 108.177 66.0308 106.125 62.0296C104.132 58.1446 102.901 53.1639 99.5331 50.2022C99.1904 49.8996 98.8233 49.6261 98.4355 49.3842C98.5344 49.0562 98.6354 48.7291 98.7365 48.4019C106.622 52.0633 115.611 55.148 124.4 54.0194C128.059 53.5471 131.645 52.3039 134.679 50.1957C138.43 47.5816 140.585 43.4856 143.804 40.3452C144.703 39.4708 144.285 38.1808 143.091 37.9199C134.144 35.9676 124.904 33.995 115.724 35.4795C110.307 36.3535 104.899 38.4702 100.721 42.0378C101.413 39.8848 102.127 37.7401 102.897 35.6048C103.438 34.1107 104.688 32.0326 104.138 30.3853C103.675 28.9851 102.128 28.4878 100.798 28.365C100.591 28.346 100.384 28.3942 100.207 28.5025C100.03 28.6107 99.8924 28.7732 99.8148 28.9658C98.5308 32.1217 97.5555 35.4319 96.6511 38.7144C96.2147 40.3015 95.7445 41.9308 95.3509 43.5696C94.1695 40.4343 91.8445 37.8027 88.9091 36.0138C84.8855 33.5712 79.5897 31.121 74.7908 32.0809C73.9751 32.2473 73.6036 33.0293 73.8663 33.7905C75.4488 38.355 77.3135 43.3571 81.5952 46.0725ZM140.361 40.1009C138.203 42.633 136.353 45.4624 133.721 47.5153C130.92 49.6937 127.466 50.8674 123.969 51.3221C116.024 52.3478 108.717 49.3638 101.423 46.6886L101.62 46.6141C102.836 46.176 104.077 45.8121 105.337 45.5244C106.517 45.2609 107.71 45.0596 108.911 44.9215C109.924 44.7961 110.961 44.803 111.762 44.1218C111.848 44.051 111.917 43.9616 111.963 43.8603C112.01 43.759 112.033 43.6484 112.031 43.5368C112.029 43.4253 112.002 43.3156 111.952 43.2161C111.901 43.1166 111.829 43.0298 111.74 42.9622C109.893 41.7115 106.443 42.9396 104.483 43.4889C103.275 43.7983 102.083 44.1682 100.912 44.5972C111.285 34.9909 127.215 37.2808 140.361 40.1009ZM102.094 31.6123C101.977 32.3646 101.438 33.2373 101.16 33.963C100.544 35.5632 99.9551 37.1744 99.3942 38.7987C98.5752 41.1836 97.779 43.5873 97.0685 46.0091C96.9823 46.1288 96.8974 46.2515 96.8134 46.3721C97.4413 43.976 97.9263 41.5348 98.596 39.1474C99.4238 36.2065 100.425 33.3027 101.357 30.3845C101.88 30.5289 102.212 30.8378 102.094 31.6123ZM93.2028 50.618C93.4553 50.7876 93.7563 50.8696 94.0598 50.8513C98.8722 50.6039 100.539 57.1525 102.124 60.5467C103.884 64.3141 105.947 67.9306 108.016 71.537C112.035 78.5353 116.28 85.6738 118.113 93.6183C122.034 110.614 114.11 128.002 100.723 138.496C97.3746 141.118 93.7403 143.352 89.8898 145.155C86.1815 146.893 82.0775 148.006 78.905 150.693C77.7873 151.643 76.6452 153.053 75.1958 153.499C72.847 154.224 71.2482 151.808 70.5258 149.938C69.7679 148.005 69.3814 145.959 68.5889 144.038C67.7954 142.171 66.842 140.376 65.7393 138.673C61.2969 131.636 55.5119 125.724 53.4039 117.427C51.1884 108.708 50.7982 98.84 54.5828 90.5027C56.6646 85.9269 59.8982 81.9116 63.6424 78.5927C67.3866 75.2738 71.6302 72.9405 75.9086 70.4325C80.2744 67.873 84.1278 64.7519 86.7828 60.3725C88.2502 57.9497 89.9806 51.9263 93.2028 50.618ZM87.5124 37.9021C89.3046 38.9458 91.0024 40.254 92.206 41.9732C93.0957 43.2525 93.5391 44.6955 94.0335 46.1231L93.9256 46.1366C93.4529 45.2767 92.4827 44.804 91.7065 44.2182C90.6578 43.4292 89.6905 42.5462 88.5681 41.8642C88.468 41.7958 88.3487 41.7613 88.2276 41.7659C88.1065 41.7704 87.9901 41.8138 87.8955 41.8897C87.8009 41.9655 87.7332 42.0697 87.7022 42.187C87.6712 42.3043 87.6787 42.4284 87.7235 42.5411C88.2468 43.8545 89.1826 44.8908 90.2402 45.8062C90.4288 45.9668 90.6157 46.1318 90.8239 46.3001C87.8244 46.192 84.7009 45.3463 82.437 43.6739C79.3915 41.4235 77.8933 37.8297 76.6554 34.334C80.3703 34.2043 84.4452 36.1174 87.5124 37.9021Z" fill="#0F282F"/>
<path d="M66.8013 90.5385C66.1766 90.8497 65.6468 91.323 65.2671 91.9091C64.8874 92.4952 64.6718 93.1726 64.6427 93.8706C64.6388 95.8632 66.3717 97.7367 68.4415 97.3125C70.5832 96.8709 71.4944 94.4614 70.7667 92.5473C70.2305 91.1111 68.199 89.551 66.8013 90.5385ZM67.5997 94.6871C66.9525 94.3643 67.0381 93.7653 67.3694 93.1333C67.5164 93.113 67.6583 93.0648 67.7873 92.9913C68.3033 92.6991 68.7905 95.2827 67.5997 94.6871Z" fill="#0F282F"/>
<path d="M103.644 106.292C105.875 105.705 106.939 102.67 105.965 100.685C105.235 99.1943 102.708 98.3986 101.676 99.6076C101.622 99.6369 101.57 99.6619 101.517 99.6964C101.055 99.9945 100.661 100.386 100.361 100.847C100.061 101.307 99.8602 101.826 99.7729 102.369C99.4463 104.522 101.361 106.898 103.644 106.292ZM102.899 101.602C103.04 101.602 103.178 101.642 103.297 101.719C103.416 101.795 103.509 101.905 103.567 102.034C103.689 102.367 103.403 103.688 102.93 103.686C102.357 103.683 102.319 102.71 102.441 102.356C102.546 102.079 102.701 101.823 102.899 101.602Z" fill="#0F282F"/>
<path d="M103.374 112.822L103.432 112.918L103.634 113.246L103.914 113.52C104.188 113.722 104.523 113.822 104.862 113.804C105.159 113.798 105.448 113.704 105.692 113.534C105.936 113.364 106.124 113.125 106.232 112.848C106.321 112.6 106.347 112.333 106.307 112.073C106.267 111.812 106.163 111.565 106.004 111.355C105.791 111.094 105.496 110.913 105.167 110.841C105.042 110.791 104.905 110.777 104.773 110.799C104.577 110.788 104.382 110.829 104.206 110.917L104.099 110.948C103.928 111.022 103.774 111.131 103.645 111.266C103.517 111.401 103.416 111.56 103.35 111.734C103.279 111.908 103.245 112.094 103.249 112.281C103.253 112.468 103.296 112.652 103.374 112.822Z" fill="#0F282F"/>
<path d="M61.467 99.5037C61.0932 99.3649 60.6804 99.3751 60.3138 99.5321C60.0429 99.6542 59.814 99.8537 59.6558 100.106C59.4976 100.357 59.4171 100.65 59.4244 100.948C59.4318 101.245 59.5266 101.534 59.697 101.777C59.8674 102.021 60.1058 102.209 60.3824 102.318C60.7568 102.457 61.1705 102.447 61.5379 102.29C61.809 102.168 62.038 101.968 62.1962 101.716C62.3544 101.464 62.4347 101.171 62.4272 100.873C62.4196 100.576 62.3244 100.287 62.1536 100.043C61.9828 99.7997 61.744 99.6119 61.467 99.5037Z" fill="#0F282F"/>
<path d="M79.2423 100.468C77.4944 103.274 78.9876 106.783 82.235 107.431C85.6021 108.1 88.8411 104.538 88.2484 101.201C88.2157 101.028 88.1339 100.868 88.0127 100.74C87.8916 100.612 87.7362 100.522 87.5652 100.48C87.3942 100.439 87.2148 100.447 87.0485 100.505C86.8821 100.562 86.7359 100.667 86.6273 100.805C85.449 102.342 85.4955 105.555 82.804 105.253C80.331 104.974 80.5993 102.484 80.0829 100.672C79.9836 100.325 79.479 100.088 79.2423 100.468Z" fill="#0F282F"/>
<path d="M115.695 44.4254C117.57 44.8788 119.476 44.9128 121.399 44.9537C123.178 44.9915 125.182 45.219 126.857 44.5267C126.999 44.4598 127.119 44.3528 127.202 44.2188C127.285 44.0848 127.327 43.9295 127.323 43.7719C127.319 43.6143 127.27 43.4613 127.181 43.3314C127.091 43.2015 126.966 43.1005 126.821 43.0405C125.207 42.4171 123.325 42.6656 121.624 42.7307C119.678 42.8088 117.698 42.8565 115.806 43.3593C115.347 43.4831 115.1 44.2805 115.695 44.4254Z" fill="#0F282F"/>
<path d="M85.5561 70.8018L85.7087 70.8608C85.7523 70.8667 85.7964 70.8677 85.8403 70.864C85.9529 70.8588 86.0622 70.8241 86.1572 70.7632C86.2456 70.7056 86.3216 70.631 86.381 70.5437C86.4403 70.4564 86.4816 70.3581 86.5026 70.2547C86.5236 70.1512 86.5238 70.0445 86.5033 69.941C86.4827 69.8374 86.4417 69.739 86.3828 69.6514C86.3172 69.5689 86.2332 69.5029 86.1376 69.4588C86.042 69.4147 85.9373 69.3937 85.8321 69.3974C85.7269 69.4011 85.624 69.4295 85.5317 69.4803C85.4394 69.5311 85.3603 69.6029 85.3008 69.6899C85.2571 69.7552 85.2229 69.8265 85.1992 69.9014C85.0403 69.9724 84.9147 70.1015 84.848 70.2624C84.7813 70.4232 84.7788 70.6036 84.8408 70.7663C84.8718 70.8333 84.9205 70.8905 84.9816 70.9319C85.0428 70.9732 85.114 70.9969 85.1877 71.0006C85.2614 71.0043 85.3346 70.9877 85.3996 70.9527C85.4645 70.9176 85.5186 70.8655 85.5561 70.8018Z" fill="#0F282F"/>
<path d="M98.2843 68.8979C98.3161 68.9199 98.3499 68.9388 98.3853 68.9545C98.4691 68.985 98.5595 68.9928 98.6474 68.9772C98.7353 68.9616 98.8174 68.923 98.8856 68.8654C98.9538 68.8078 99.0056 68.7332 99.0358 68.6491C99.066 68.565 99.0735 68.4744 99.0576 68.3865C98.9546 67.5943 97.6599 67.7687 97.7402 68.5547C97.7505 68.6146 97.7732 68.6716 97.8069 68.7221C97.8406 68.7725 97.8846 68.8154 97.9359 68.8477C97.9872 68.8801 98.0447 68.9013 98.1048 68.9099C98.1648 68.9186 98.226 68.9145 98.2843 68.8979Z" fill="#0F282F"/>
<path d="M93.7919 83.2247C93.8635 83.3179 93.9546 83.3942 94.0589 83.4482C94.298 83.9394 94.979 83.8038 95.2367 83.4017C95.3122 83.2866 95.3597 83.1554 95.3754 83.0186C95.3911 82.8819 95.3747 82.7433 95.3274 82.614C95.3692 82.4305 95.3559 82.2387 95.2894 82.0626C95.2454 81.9592 95.1636 81.8766 95.0607 81.8317C94.9578 81.7869 94.8417 81.7831 94.7361 81.8212C94.6968 81.8112 94.6568 81.8042 94.6165 81.8001L94.5566 81.7995C94.4141 81.7753 94.2675 81.7937 94.1353 81.8523C94.0031 81.911 93.8911 82.0073 93.8133 82.1293C93.7012 82.289 93.6393 82.4786 93.6355 82.6737C93.6317 82.8689 93.6861 83.0607 93.7919 83.2247Z" fill="#0F282F"/>
<path d="M108.995 82.8287C109.138 82.8722 109.288 82.8849 109.436 82.866C109.584 82.8471 109.727 82.7971 109.854 82.7191C110.022 82.6167 110.159 82.4698 110.25 82.2946C110.34 82.1194 110.381 81.9227 110.367 81.7259C110.357 81.6571 110.328 81.5923 110.284 81.5382C110.24 81.4842 110.182 81.443 110.117 81.4187L109.681 81.2502C109.587 81.1599 109.477 81.0893 109.355 81.0424C109.234 80.9955 109.105 80.9734 108.975 80.9772C108.917 80.9645 108.857 80.9648 108.8 80.9781C108.742 80.9914 108.688 81.0175 108.642 81.0543C108.459 81.2103 108.328 81.4191 108.268 81.6521C108.208 81.8851 108.221 82.1311 108.305 82.3564C108.358 82.4964 108.453 82.6168 108.576 82.7013C108.699 82.7857 108.846 82.8302 108.995 82.8287Z" fill="#0F282F"/>
<path d="M79.7362 85.2581C79.5348 85.3111 79.3537 85.4226 79.2155 85.5786C79.0774 85.7346 78.9885 85.928 78.96 86.1346C78.9501 86.2464 78.9625 86.3592 78.9966 86.4662C79.0306 86.5732 79.0855 86.6724 79.1581 86.7579C79.1471 86.9166 79.1528 87.0761 79.1752 87.2336C79.1854 87.2907 79.2083 87.3448 79.2422 87.3919C79.2761 87.4389 79.3202 87.4777 79.3712 87.5054C79.4221 87.533 79.4787 87.5488 79.5366 87.5516C79.5945 87.5543 79.6523 87.544 79.7056 87.5213C79.9284 87.4395 80.1272 87.3034 80.2841 87.1253C80.4428 87.0883 80.5909 87.0157 80.7174 86.9129C80.8438 86.8101 80.9452 86.6798 81.0139 86.5319C81.2054 86.1193 81.2004 85.2746 80.7107 85.0502C80.5476 84.9749 80.3645 84.9545 80.1889 84.992C80.0133 85.0295 79.8545 85.1228 79.7362 85.2581Z" fill="#0F282F"/>
<path d="M70.5064 79.6649L70.526 79.6725L70.5416 79.7036C70.5876 79.7603 70.6476 79.804 70.7157 79.8303C70.7838 79.8566 70.8575 79.8646 70.9297 79.8535C71.0603 79.8463 71.1859 79.8004 71.2904 79.7215C71.3948 79.6426 71.4735 79.5343 71.5163 79.4105C71.677 79.2705 71.8012 79.0933 71.8779 78.8943C71.9546 78.6953 71.9815 78.4805 71.9563 78.2687C71.9408 78.179 71.8963 78.0969 71.8297 78.035C71.7631 77.973 71.6781 77.9346 71.5876 77.9256C71.3873 77.908 71.186 77.9467 71.0065 78.0372C70.8269 78.1277 70.676 78.2666 70.5709 78.4382C70.1215 78.5706 69.846 79.4674 70.5064 79.6649Z" fill="#0F282F"/>
<path d="M93.757 58.1688C93.7309 58.2365 93.6909 58.3013 93.6618 58.3703C93.6346 58.4465 93.6321 58.5294 93.6548 58.6071C93.6775 58.6848 93.7242 58.7533 93.7881 58.8029C93.938 58.9396 94.1164 59.0411 94.3103 59.1C94.5043 59.1589 94.709 59.1737 94.9094 59.1434C94.9776 59.1324 95.0418 59.1038 95.0955 59.0603C95.1492 59.0168 95.1905 58.9599 95.2154 58.8954C95.2193 58.8886 95.2221 58.8812 95.2238 58.8736L95.2787 58.8546C95.8831 58.5865 96.477 57.4616 95.6507 57.0771C95.5784 57.0464 95.5027 57.0247 95.4251 57.0125C95.1256 56.815 94.7618 56.74 94.4087 56.8028C94.1956 56.8295 94.001 56.9374 93.8654 57.1041C93.7297 57.2708 93.6635 57.4834 93.6805 57.6978C93.6751 57.8583 93.7011 58.0183 93.757 58.1688Z" fill="#0F282F"/>
<path d="M93.7347 98.1592C93.777 98.277 93.8441 98.3843 93.9315 98.4738C94.0189 98.5633 94.1245 98.633 94.2411 98.6781C94.3578 98.7231 94.4827 98.7426 94.6075 98.735C94.7323 98.7275 94.854 98.6931 94.9644 98.6343C95.1964 98.5188 95.3867 98.3339 95.509 98.1052C95.6313 97.8764 95.6794 97.6153 95.6468 97.3579C95.5612 96.748 95.0531 96.2983 94.4956 96.1005C94.4117 96.0692 94.32 96.0658 94.234 96.0909C94.1481 96.116 94.0725 96.1682 94.0186 96.2397C93.8261 96.5665 93.7585 96.9521 93.8282 97.325C93.7489 97.4471 93.6991 97.5862 93.6828 97.731C93.6666 97.8758 93.6843 98.0224 93.7347 98.1592Z" fill="#0F282F"/>
<path d="M114.284 105.166C114.352 105.193 114.428 105.196 114.499 105.175C114.57 105.154 114.632 105.111 114.676 105.052C114.73 104.987 114.782 104.919 114.83 104.848C115.318 104.816 115.777 104.494 115.714 103.918C115.664 103.397 115.176 103.143 114.714 103.165C114.784 103.067 114.703 102.875 114.562 102.911C113.492 103.145 113.355 104.664 114.284 105.166Z" fill="#0F282F"/>
<path d="M92.0934 123.43C92.1604 123.472 92.2362 123.498 92.315 123.506C92.3937 123.514 92.4731 123.503 92.5471 123.475C92.6173 123.448 92.6828 123.41 92.741 123.362C92.7754 123.347 92.8088 123.329 92.841 123.31C93.2388 123.045 93.5016 122.487 93.2773 122.029C93.2121 121.895 93.1082 121.784 92.9791 121.71C92.9252 121.684 92.8663 121.67 92.8064 121.668C92.7465 121.667 92.687 121.678 92.6318 121.702C92.5799 121.621 92.5336 121.537 92.4933 121.45C92.469 121.397 92.4332 121.351 92.3884 121.314C92.3437 121.277 92.2912 121.251 92.2349 121.237C92.1786 121.223 92.1199 121.222 92.0632 121.234C92.0065 121.246 91.9532 121.271 91.9074 121.306C91.6691 121.477 91.4949 121.723 91.4128 122.004C91.3306 122.286 91.3451 122.587 91.4541 122.859C91.5107 122.997 91.5976 123.119 91.7083 123.218C91.819 123.317 91.9507 123.389 92.0934 123.43Z" fill="#0F282F"/>
<path d="M68.5962 112.971C68.578 113.192 68.6342 113.412 68.7558 113.597C69.0198 113.965 69.4335 113.834 69.647 113.54C69.814 113.534 69.9774 113.489 70.1237 113.408C70.192 113.376 70.2484 113.323 70.2843 113.257C70.3203 113.19 70.3341 113.114 70.3236 113.039C70.2797 112.771 70.1312 112.53 69.9107 112.371C69.6902 112.212 69.4157 112.147 69.1475 112.191C69.0035 112.221 68.8746 112.301 68.7826 112.416C68.7434 112.4 68.7004 112.394 68.6583 112.4C68.6163 112.406 68.5767 112.424 68.5438 112.451C68.511 112.478 68.4861 112.514 68.4719 112.554C68.4577 112.594 68.4548 112.637 68.4633 112.679C68.4926 112.782 68.5374 112.881 68.5962 112.971Z" fill="#0F282F"/>
<path d="M83.9509 113.359C83.8114 113.466 83.6979 113.603 83.6188 113.761C83.5398 113.918 83.4972 114.091 83.4944 114.268C83.4915 114.444 83.5284 114.618 83.6023 114.778C83.6762 114.938 83.7852 115.079 83.9212 115.191C83.9483 115.211 83.9781 115.228 84.0099 115.24C84.119 115.322 84.2508 115.369 84.3873 115.373C84.5238 115.377 84.6583 115.339 84.7723 115.264C84.915 115.155 85.0235 115.007 85.0846 114.838C85.1457 114.669 85.157 114.486 85.117 114.311C85.0269 113.895 84.6987 113.602 84.3848 113.351C84.3214 113.305 84.2448 113.281 84.1666 113.282C84.0884 113.284 84.0127 113.311 83.9509 113.359Z" fill="#0F282F"/>
<path d="M74.8477 125.856C74.6108 125.542 74.1701 125.281 73.8154 125.558C73.6834 125.67 73.5803 125.812 73.515 125.972C73.4497 126.133 73.4241 126.306 73.4404 126.479C73.4471 126.547 73.4588 126.614 73.4754 126.681C73.4538 126.826 73.4886 126.974 73.5728 127.094C73.657 127.214 73.784 127.298 73.9277 127.327C73.9549 127.331 73.9826 127.33 74.0093 127.323C74.0931 127.349 74.1832 127.345 74.2643 127.311C74.4202 127.326 74.5766 127.29 74.7102 127.208C74.8438 127.126 74.9473 127.003 75.0053 126.858C75.0676 126.691 75.0858 126.512 75.0581 126.336C75.0305 126.161 74.958 125.995 74.8477 125.856Z" fill="#0F282F"/>
<path d="M58.6903 114.481C58.5423 114.52 58.4051 114.592 58.289 114.692C58.1728 114.792 58.0808 114.917 58.0198 115.057C57.9387 115.247 57.9327 115.46 58.0032 115.653C58.0056 115.823 58.0326 115.991 58.0835 116.153C58.125 116.241 58.1989 116.31 58.2899 116.346C58.3809 116.381 58.4819 116.379 58.5719 116.342C58.8682 116.232 59.118 116.023 59.2801 115.752C59.4422 115.48 59.5069 115.161 59.4634 114.848C59.3966 114.488 58.998 114.405 58.6903 114.481Z" fill="#0F282F"/>
<path d="M74.7586 141.062C74.7455 141.057 74.7293 141.073 74.7106 141.076C74.6641 141.073 74.6175 141.082 74.5754 141.102C74.5333 141.122 74.4973 141.153 74.4707 141.192C74.3851 141.258 74.3251 141.352 74.3008 141.457C73.9315 141.681 73.6866 142.271 74.1902 142.498L74.2207 142.51C74.2674 142.549 74.3257 142.571 74.3864 142.574C74.5624 142.57 74.7336 142.515 74.8784 142.415C74.9597 142.429 75.0432 142.423 75.1216 142.397C75.2 142.372 75.271 142.327 75.3284 142.268C75.3945 142.211 75.4412 142.134 75.4618 142.049C75.4825 141.964 75.4762 141.875 75.4437 141.793C75.4084 141.678 75.3378 141.577 75.2419 141.505C75.2295 141.435 75.2057 141.367 75.1713 141.304C75.1384 141.224 75.0803 141.157 75.0058 141.114C74.9312 141.07 74.8444 141.052 74.7586 141.062Z" fill="#0F282F"/>
<path d="M93.3676 136.067C93.3676 136.067 93.3501 136.061 93.3368 136.076C93.2247 136.122 93.1289 136.201 93.0618 136.303C92.9946 136.404 92.9591 136.523 92.9597 136.645C92.9559 136.793 93.0039 136.937 93.0953 137.053C93.0801 137.129 93.082 137.207 93.1007 137.282C93.1195 137.357 93.1546 137.426 93.2036 137.486C93.2527 137.546 93.3143 137.593 93.3841 137.626C93.4539 137.659 93.5301 137.676 93.6072 137.675C93.6538 137.678 93.7005 137.673 93.7455 137.661C93.9465 137.831 94.194 137.936 94.4557 137.963C94.5201 137.969 94.585 137.96 94.6455 137.937C94.706 137.914 94.7605 137.878 94.8049 137.83C94.8493 137.783 94.8825 137.727 94.902 137.665C94.9214 137.603 94.9266 137.538 94.9172 137.474C94.8296 137.051 94.5782 136.475 94.1732 136.291C94.1335 136.165 94.0583 136.053 93.9566 135.969C93.9117 135.936 93.8607 135.913 93.8065 135.9C93.7524 135.887 93.6963 135.885 93.6415 135.894C93.5866 135.904 93.5341 135.924 93.4871 135.953C93.4401 135.983 93.3994 136.022 93.3676 136.067Z" fill="#0F282F"/>
<path d="M105.088 125.033L106.144 125.44C106.206 125.464 106.273 125.472 106.339 125.462C106.405 125.451 106.467 125.424 106.519 125.382C106.74 125.187 106.891 124.925 106.949 124.636C107.007 124.347 106.969 124.046 106.841 123.781C106.802 123.701 106.74 123.634 106.662 123.592C106.583 123.55 106.494 123.533 106.406 123.545C106.346 123.557 106.283 123.57 106.221 123.589C106.215 123.586 106.21 123.583 106.203 123.582C106.049 123.543 105.887 123.539 105.73 123.569C105.574 123.6 105.425 123.664 105.296 123.758C105.162 123.864 105.053 123.999 104.978 124.153C104.903 124.307 104.863 124.475 104.861 124.646C104.854 124.726 104.872 124.807 104.913 124.876C104.953 124.945 105.015 125 105.088 125.033Z" fill="#0F282F"/>
</g>
<defs>
<clipPath id="clip0_58_367">
<rect width="140.248" height="140.379" fill="white" transform="matrix(0.932785 0.360434 -0.359643 0.93309 50.4863 0)"/>
</clipPath>
</defs>
</svg>
