<svg width="2076" height="886" viewBox="0 0 2076 886" fill="none" xmlns="http://www.w3.org/2000/svg">
<path d="M1960.11 0C1902.17 0 1902.17 39.8229 1844.22 39.8229C1786.28 39.8229 1788.36 0 1730.42 0C1672.47 0 1674.56 39.8229 1616.61 39.8229C1558.67 39.8229 1558.67 0 1500.72 0C1442.78 0 1442.28 39.7037 1384.33 39.8229C1326.39 39.8229 1325.89 0 1267.94 0C1210 0 1210 39.8229 1152.05 39.8229C1094.11 39.8229 1096.19 0 1038.25 0C980.306 0 982.39 39.8229 924.445 39.8229C866.501 39.8229 866.501 0 808.556 0C750.612 0 750.111 39.7037 692.167 39.8229C634.222 39.8229 633.722 0 575.777 0C517.833 0 517.833 39.8229 459.888 39.8229C401.944 39.8229 404.028 0 346.083 0C288.139 0 290.223 39.8229 232.279 39.8229C174.334 39.8229 174.334 0 116.389 0C58.4448 0 57.9446 39.8229 0 39.8229V846.296C57.4443 846.296 56.8607 886 114.305 886C171.666 886 171.666 846.296 229.11 846.296C286.555 846.296 288.639 886 346 886C403.444 886 405.529 846.296 462.89 846.296C520.251 846.296 520.251 886 577.695 886C635.139 886 634.556 846.296 692 846.296C749.444 846.296 748.861 886 806.305 886C863.749 886 863.749 846.296 921.11 846.296C978.471 846.296 980.639 886 1038 886C1095.36 886 1097.53 846.296 1154.89 846.296C1212.33 846.296 1212.33 886 1269.69 886C1327.14 886 1326.56 846.296 1384 846.296C1441.44 846.296 1440.86 886 1498.31 886C1555.75 886 1555.75 846.296 1613.11 846.296C1670.47 846.296 1672.64 886 1730 886C1787.44 886 1789.53 846.296 1846.89 846.296C1904.33 846.296 1904.33 886 1961.69 886C2019.14 886 2018.56 846.296 2076 846.296V39.7037C2018.56 39.7037 2018.06 0 1960.11 0Z" fill="#F2EDEC"/>
</svg>
